<svg width="498" height="505" viewBox="0 0 498 505" fill="none" xmlns="http://www.w3.org/2000/svg">
<g filter="url(#filter0_d_0_81)">
<rect x="77" y="77" width="344" height="351" rx="15" fill="white"/>
</g>
<path d="M113.164 274.523L116.055 265.625H118.227L114.133 277H112.219L108.141 265.625H110.305L113.164 274.523ZM119.062 272.695C119.062 271.867 119.226 271.122 119.554 270.461C119.882 269.794 120.343 269.284 120.937 268.93C121.53 268.57 122.213 268.391 122.984 268.391C124.124 268.391 125.049 268.758 125.757 269.492C126.47 270.227 126.856 271.201 126.913 272.414L126.921 272.859C126.921 273.693 126.76 274.438 126.437 275.094C126.119 275.75 125.661 276.258 125.062 276.617C124.468 276.977 123.78 277.156 122.999 277.156C121.806 277.156 120.851 276.76 120.132 275.969C119.418 275.172 119.062 274.112 119.062 272.789V272.695ZM120.96 272.859C120.96 273.729 121.14 274.411 121.499 274.906C121.859 275.396 122.359 275.641 122.999 275.641C123.64 275.641 124.137 275.391 124.491 274.891C124.851 274.391 125.03 273.659 125.03 272.695C125.03 271.841 124.845 271.164 124.476 270.664C124.111 270.164 123.614 269.914 122.984 269.914C122.364 269.914 121.872 270.161 121.507 270.656C121.142 271.146 120.96 271.88 120.96 272.859ZM132.444 275.641C132.918 275.641 133.311 275.503 133.623 275.227C133.936 274.951 134.102 274.609 134.123 274.203H135.912C135.891 274.729 135.727 275.221 135.42 275.68C135.113 276.133 134.696 276.492 134.17 276.758C133.644 277.023 133.076 277.156 132.467 277.156C131.285 277.156 130.347 276.773 129.655 276.008C128.962 275.242 128.615 274.185 128.615 272.836V272.641C128.615 271.354 128.959 270.326 129.647 269.555C130.334 268.779 131.272 268.391 132.459 268.391C133.464 268.391 134.282 268.685 134.912 269.273C135.548 269.857 135.881 270.625 135.912 271.578H134.123C134.102 271.094 133.936 270.695 133.623 270.383C133.316 270.07 132.923 269.914 132.444 269.914C131.829 269.914 131.355 270.138 131.022 270.586C130.688 271.029 130.519 271.703 130.514 272.609V272.914C130.514 273.831 130.678 274.516 131.006 274.969C131.339 275.417 131.819 275.641 132.444 275.641ZM141.513 277.156C140.31 277.156 139.333 276.779 138.583 276.023C137.839 275.263 137.466 274.253 137.466 272.992V272.758C137.466 271.914 137.628 271.161 137.951 270.5C138.279 269.833 138.737 269.315 139.326 268.945C139.914 268.576 140.57 268.391 141.294 268.391C142.445 268.391 143.333 268.758 143.958 269.492C144.589 270.227 144.904 271.266 144.904 272.609V273.375H139.38C139.437 274.073 139.669 274.625 140.076 275.031C140.487 275.438 141.003 275.641 141.622 275.641C142.492 275.641 143.201 275.289 143.747 274.586L144.771 275.562C144.432 276.068 143.979 276.461 143.411 276.742C142.849 277.018 142.216 277.156 141.513 277.156ZM141.286 269.914C140.766 269.914 140.344 270.096 140.021 270.461C139.703 270.826 139.5 271.333 139.411 271.984H143.029V271.844C142.987 271.208 142.818 270.729 142.521 270.406C142.224 270.078 141.812 269.914 141.286 269.914ZM143.849 267.164V267.25H142.326L141.154 266.031L139.99 267.25H138.482V267.148L140.599 264.992H141.716L143.849 267.164ZM155.996 274.703C155.996 274.365 155.855 274.107 155.574 273.93C155.298 273.753 154.837 273.596 154.191 273.461C153.545 273.326 153.006 273.154 152.574 272.945C151.626 272.487 151.152 271.823 151.152 270.953C151.152 270.224 151.459 269.615 152.074 269.125C152.688 268.635 153.47 268.391 154.418 268.391C155.428 268.391 156.243 268.641 156.863 269.141C157.488 269.641 157.8 270.289 157.8 271.086H155.902C155.902 270.721 155.766 270.419 155.496 270.18C155.225 269.935 154.865 269.812 154.418 269.812C154.001 269.812 153.66 269.909 153.394 270.102C153.134 270.294 153.003 270.552 153.003 270.875C153.003 271.167 153.126 271.393 153.371 271.555C153.615 271.716 154.11 271.88 154.855 272.047C155.6 272.208 156.183 272.404 156.605 272.633C157.032 272.857 157.347 273.128 157.55 273.445C157.759 273.763 157.863 274.148 157.863 274.602C157.863 275.362 157.548 275.979 156.918 276.453C156.287 276.922 155.462 277.156 154.441 277.156C153.748 277.156 153.131 277.031 152.589 276.781C152.048 276.531 151.626 276.188 151.324 275.75C151.022 275.312 150.871 274.841 150.871 274.336H152.714C152.74 274.784 152.91 275.13 153.222 275.375C153.535 275.615 153.949 275.734 154.464 275.734C154.964 275.734 155.345 275.641 155.605 275.453C155.865 275.26 155.996 275.01 155.996 274.703ZM165.018 277C164.935 276.839 164.862 276.576 164.799 276.211C164.195 276.841 163.456 277.156 162.581 277.156C161.732 277.156 161.039 276.914 160.503 276.43C159.966 275.945 159.698 275.346 159.698 274.633C159.698 273.732 160.031 273.042 160.698 272.562C161.37 272.078 162.328 271.836 163.573 271.836H164.737V271.281C164.737 270.844 164.615 270.495 164.37 270.234C164.125 269.969 163.753 269.836 163.253 269.836C162.82 269.836 162.466 269.945 162.19 270.164C161.914 270.378 161.776 270.651 161.776 270.984H159.878C159.878 270.521 160.031 270.089 160.339 269.688C160.646 269.281 161.062 268.964 161.589 268.734C162.12 268.505 162.711 268.391 163.362 268.391C164.352 268.391 165.141 268.641 165.729 269.141C166.318 269.635 166.62 270.333 166.635 271.234V275.047C166.635 275.807 166.742 276.414 166.956 276.867V277H165.018ZM162.932 275.633C163.307 275.633 163.659 275.542 163.987 275.359C164.32 275.177 164.57 274.932 164.737 274.625V273.031H163.714C163.01 273.031 162.482 273.154 162.128 273.398C161.773 273.643 161.596 273.99 161.596 274.438C161.596 274.802 161.716 275.094 161.956 275.312C162.201 275.526 162.526 275.633 162.932 275.633ZM176.486 272.859C176.486 274.172 176.192 275.216 175.603 275.992C175.02 276.768 174.215 277.156 173.189 277.156C172.2 277.156 171.429 276.799 170.877 276.086L170.783 277H169.064V265H170.963V269.359C171.51 268.714 172.247 268.391 173.174 268.391C174.205 268.391 175.015 268.773 175.603 269.539C176.192 270.305 176.486 271.375 176.486 272.75V272.859ZM174.588 272.695C174.588 271.779 174.426 271.091 174.103 270.633C173.78 270.174 173.312 269.945 172.697 269.945C171.874 269.945 171.296 270.305 170.963 271.023V274.508C171.301 275.242 171.885 275.609 172.713 275.609C173.306 275.609 173.765 275.388 174.088 274.945C174.411 274.503 174.577 273.833 174.588 272.938V272.695ZM182.251 277.156C181.048 277.156 180.071 276.779 179.321 276.023C178.576 275.263 178.204 274.253 178.204 272.992V272.758C178.204 271.914 178.365 271.161 178.688 270.5C179.016 269.833 179.475 269.315 180.063 268.945C180.652 268.576 181.308 268.391 182.032 268.391C183.183 268.391 184.071 268.758 184.696 269.492C185.326 270.227 185.641 271.266 185.641 272.609V273.375H180.118C180.175 274.073 180.407 274.625 180.813 275.031C181.225 275.438 181.74 275.641 182.36 275.641C183.23 275.641 183.938 275.289 184.485 274.586L185.509 275.562C185.17 276.068 184.717 276.461 184.149 276.742C183.587 277.018 182.954 277.156 182.251 277.156ZM182.024 269.914C181.503 269.914 181.082 270.096 180.759 270.461C180.441 270.826 180.238 271.333 180.149 271.984H183.766V271.844C183.725 271.208 183.556 270.729 183.259 270.406C182.962 270.078 182.55 269.914 182.024 269.914ZM191.992 270.281C191.742 270.24 191.484 270.219 191.219 270.219C190.349 270.219 189.763 270.552 189.461 271.219V277H187.562V268.547H189.375L189.422 269.492C189.88 268.758 190.516 268.391 191.328 268.391C191.599 268.391 191.823 268.427 192 268.5L191.992 270.281ZM198.452 277C198.369 276.839 198.296 276.576 198.234 276.211C197.629 276.841 196.89 277.156 196.015 277.156C195.166 277.156 194.473 276.914 193.937 276.43C193.4 275.945 193.132 275.346 193.132 274.633C193.132 273.732 193.465 273.042 194.132 272.562C194.804 272.078 195.762 271.836 197.007 271.836H198.171V271.281C198.171 270.844 198.049 270.495 197.804 270.234C197.559 269.969 197.187 269.836 196.687 269.836C196.254 269.836 195.9 269.945 195.624 270.164C195.348 270.378 195.21 270.651 195.21 270.984H193.312C193.312 270.521 193.465 270.089 193.773 269.688C194.08 269.281 194.497 268.964 195.023 268.734C195.554 268.505 196.145 268.391 196.796 268.391C197.786 268.391 198.575 268.641 199.163 269.141C199.752 269.635 200.054 270.333 200.069 271.234V275.047C200.069 275.807 200.176 276.414 200.39 276.867V277H198.452ZM196.366 275.633C196.741 275.633 197.093 275.542 197.421 275.359C197.754 275.177 198.004 274.932 198.171 274.625V273.031H197.148C196.444 273.031 195.916 273.154 195.562 273.398C195.207 273.643 195.03 273.99 195.03 274.438C195.03 274.802 195.15 275.094 195.39 275.312C195.635 275.526 195.96 275.633 196.366 275.633ZM197.421 265H199.585L197.421 267.367H195.898L197.421 265ZM210.404 275.641C210.878 275.641 211.271 275.503 211.583 275.227C211.896 274.951 212.062 274.609 212.083 274.203H213.872C213.852 274.729 213.687 275.221 213.38 275.68C213.073 276.133 212.656 276.492 212.13 276.758C211.604 277.023 211.036 277.156 210.427 277.156C209.245 277.156 208.307 276.773 207.615 276.008C206.922 275.242 206.576 274.185 206.576 272.836V272.641C206.576 271.354 206.919 270.326 207.607 269.555C208.294 268.779 209.232 268.391 210.419 268.391C211.424 268.391 212.242 268.685 212.872 269.273C213.508 269.857 213.841 270.625 213.872 271.578H212.083C212.062 271.094 211.896 270.695 211.583 270.383C211.276 270.07 210.883 269.914 210.404 269.914C209.789 269.914 209.315 270.138 208.982 270.586C208.648 271.029 208.479 271.703 208.474 272.609V272.914C208.474 273.831 208.638 274.516 208.966 274.969C209.299 275.417 209.779 275.641 210.404 275.641ZM215.395 272.695C215.395 271.867 215.559 271.122 215.887 270.461C216.215 269.794 216.676 269.284 217.27 268.93C217.864 268.57 218.546 268.391 219.317 268.391C220.457 268.391 221.382 268.758 222.09 269.492C222.804 270.227 223.189 271.201 223.247 272.414L223.254 272.859C223.254 273.693 223.093 274.438 222.77 275.094C222.452 275.75 221.994 276.258 221.395 276.617C220.801 276.977 220.114 277.156 219.332 277.156C218.14 277.156 217.184 276.76 216.465 275.969C215.752 275.172 215.395 274.112 215.395 272.789V272.695ZM217.293 272.859C217.293 273.729 217.473 274.411 217.832 274.906C218.192 275.396 218.692 275.641 219.332 275.641C219.973 275.641 220.47 275.391 220.825 274.891C221.184 274.391 221.364 273.659 221.364 272.695C221.364 271.841 221.179 271.164 220.809 270.664C220.444 270.164 219.947 269.914 219.317 269.914C218.697 269.914 218.205 270.161 217.84 270.656C217.476 271.146 217.293 271.88 217.293 272.859ZM227.089 268.547L227.144 269.43C227.738 268.737 228.55 268.391 229.582 268.391C230.712 268.391 231.485 268.823 231.902 269.688C232.516 268.823 233.381 268.391 234.496 268.391C235.428 268.391 236.121 268.648 236.574 269.164C237.032 269.68 237.266 270.44 237.277 271.445V277H235.378V271.5C235.378 270.964 235.261 270.57 235.027 270.32C234.793 270.07 234.405 269.945 233.863 269.945C233.431 269.945 233.076 270.062 232.8 270.297C232.53 270.526 232.339 270.828 232.23 271.203L232.238 277H230.339V271.438C230.313 270.443 229.806 269.945 228.816 269.945C228.056 269.945 227.516 270.255 227.199 270.875V277H225.3V268.547H227.089ZM239.315 272.695C239.315 271.867 239.479 271.122 239.807 270.461C240.135 269.794 240.596 269.284 241.19 268.93C241.784 268.57 242.466 268.391 243.237 268.391C244.378 268.391 245.302 268.758 246.01 269.492C246.724 270.227 247.109 271.201 247.167 272.414L247.174 272.859C247.174 273.693 247.013 274.438 246.69 275.094C246.372 275.75 245.914 276.258 245.315 276.617C244.721 276.977 244.034 277.156 243.253 277.156C242.06 277.156 241.104 276.76 240.385 275.969C239.672 275.172 239.315 274.112 239.315 272.789V272.695ZM241.214 272.859C241.214 273.729 241.393 274.411 241.753 274.906C242.112 275.396 242.612 275.641 243.253 275.641C243.893 275.641 244.391 275.391 244.745 274.891C245.104 274.391 245.284 273.659 245.284 272.695C245.284 271.841 245.099 271.164 244.729 270.664C244.365 270.164 243.867 269.914 243.237 269.914C242.617 269.914 242.125 270.161 241.76 270.656C241.396 271.146 241.214 271.88 241.214 272.859ZM257.376 277.156C256.173 277.156 255.196 276.779 254.446 276.023C253.701 275.263 253.329 274.253 253.329 272.992V272.758C253.329 271.914 253.49 271.161 253.813 270.5C254.141 269.833 254.6 269.315 255.188 268.945C255.777 268.576 256.433 268.391 257.157 268.391C258.308 268.391 259.196 268.758 259.821 269.492C260.451 270.227 260.766 271.266 260.766 272.609V273.375H255.243C255.3 274.073 255.532 274.625 255.938 275.031C256.35 275.438 256.865 275.641 257.485 275.641C258.355 275.641 259.063 275.289 259.61 274.586L260.634 275.562C260.295 276.068 259.842 276.461 259.274 276.742C258.712 277.018 258.079 277.156 257.376 277.156ZM257.149 269.914C256.628 269.914 256.207 270.096 255.884 270.461C255.566 270.826 255.363 271.333 255.274 271.984H258.891V271.844C258.85 271.208 258.681 270.729 258.384 270.406C258.087 270.078 257.675 269.914 257.149 269.914ZM267.43 274.703C267.43 274.365 267.289 274.107 267.008 273.93C266.732 273.753 266.271 273.596 265.625 273.461C264.979 273.326 264.44 273.154 264.008 272.945C263.06 272.487 262.586 271.823 262.586 270.953C262.586 270.224 262.893 269.615 263.508 269.125C264.122 268.635 264.904 268.391 265.852 268.391C266.862 268.391 267.677 268.641 268.297 269.141C268.922 269.641 269.234 270.289 269.234 271.086H267.336C267.336 270.721 267.201 270.419 266.93 270.18C266.659 269.935 266.299 269.812 265.852 269.812C265.435 269.812 265.094 269.909 264.828 270.102C264.568 270.294 264.437 270.552 264.437 270.875C264.437 271.167 264.56 271.393 264.805 271.555C265.049 271.716 265.544 271.88 266.289 272.047C267.034 272.208 267.617 272.404 268.039 272.633C268.466 272.857 268.781 273.128 268.984 273.445C269.193 273.763 269.297 274.148 269.297 274.602C269.297 275.362 268.982 275.979 268.352 276.453C267.721 276.922 266.896 277.156 265.875 277.156C265.182 277.156 264.565 277.031 264.023 276.781C263.482 276.531 263.06 276.188 262.758 275.75C262.456 275.312 262.305 274.841 262.305 274.336H264.148C264.174 274.784 264.344 275.13 264.656 275.375C264.969 275.615 265.383 275.734 265.898 275.734C266.398 275.734 266.779 275.641 267.039 275.453C267.299 275.26 267.43 275.01 267.43 274.703ZM273.78 266.492V268.547H275.273V269.953H273.78V274.672C273.78 274.995 273.843 275.229 273.968 275.375C274.098 275.516 274.327 275.586 274.655 275.586C274.874 275.586 275.095 275.56 275.319 275.508V276.977C274.887 277.096 274.47 277.156 274.069 277.156C272.611 277.156 271.882 276.352 271.882 274.742V269.953H270.491V268.547H271.882V266.492H273.78ZM282.225 277C282.141 276.839 282.069 276.576 282.006 276.211C281.402 276.841 280.662 277.156 279.787 277.156C278.938 277.156 278.246 276.914 277.709 276.43C277.173 275.945 276.905 275.346 276.905 274.633C276.905 273.732 277.238 273.042 277.905 272.562C278.576 272.078 279.535 271.836 280.78 271.836H281.944V271.281C281.944 270.844 281.821 270.495 281.576 270.234C281.332 269.969 280.959 269.836 280.459 269.836C280.027 269.836 279.673 269.945 279.397 270.164C279.121 270.378 278.983 270.651 278.983 270.984H277.084C277.084 270.521 277.238 270.089 277.545 269.688C277.852 269.281 278.269 268.964 278.795 268.734C279.326 268.505 279.918 268.391 280.569 268.391C281.558 268.391 282.347 268.641 282.936 269.141C283.524 269.635 283.826 270.333 283.842 271.234V275.047C283.842 275.807 283.949 276.414 284.162 276.867V277H282.225ZM280.139 275.633C280.514 275.633 280.865 275.542 281.194 275.359C281.527 275.177 281.777 274.932 281.944 274.625V273.031H280.92C280.217 273.031 279.688 273.154 279.334 273.398C278.98 273.643 278.803 273.99 278.803 274.438C278.803 274.802 278.923 275.094 279.162 275.312C279.407 275.526 279.733 275.633 280.139 275.633ZM281.194 265H283.358L281.194 267.367H279.67L281.194 265ZM294.426 277.156C293.223 277.156 292.247 276.779 291.497 276.023C290.752 275.263 290.379 274.253 290.379 272.992V272.758C290.379 271.914 290.541 271.161 290.864 270.5C291.192 269.833 291.65 269.315 292.239 268.945C292.827 268.576 293.484 268.391 294.207 268.391C295.359 268.391 296.247 268.758 296.872 269.492C297.502 270.227 297.817 271.266 297.817 272.609V273.375H292.293C292.351 274.073 292.582 274.625 292.989 275.031C293.4 275.438 293.916 275.641 294.536 275.641C295.405 275.641 296.114 275.289 296.661 274.586L297.684 275.562C297.345 276.068 296.892 276.461 296.325 276.742C295.762 277.018 295.129 277.156 294.426 277.156ZM294.2 269.914C293.679 269.914 293.257 270.096 292.934 270.461C292.616 270.826 292.413 271.333 292.325 271.984H295.942V271.844C295.9 271.208 295.731 270.729 295.434 270.406C295.137 270.078 294.726 269.914 294.2 269.914ZM302.613 274.594L304.402 268.547H306.363L303.433 277H301.785L298.832 268.547H300.8L302.613 274.594ZM307.518 272.695C307.518 271.867 307.682 271.122 308.01 270.461C308.339 269.794 308.799 269.284 309.393 268.93C309.987 268.57 310.669 268.391 311.44 268.391C312.581 268.391 313.505 268.758 314.214 269.492C314.927 270.227 315.312 271.201 315.37 272.414L315.378 272.859C315.378 273.693 315.216 274.438 314.893 275.094C314.576 275.75 314.117 276.258 313.518 276.617C312.924 276.977 312.237 277.156 311.456 277.156C310.263 277.156 309.307 276.76 308.589 275.969C307.875 275.172 307.518 274.112 307.518 272.789V272.695ZM309.417 272.859C309.417 273.729 309.596 274.411 309.956 274.906C310.315 275.396 310.815 275.641 311.456 275.641C312.096 275.641 312.594 275.391 312.948 274.891C313.307 274.391 313.487 273.659 313.487 272.695C313.487 271.841 313.302 271.164 312.932 270.664C312.568 270.164 312.07 269.914 311.44 269.914C310.82 269.914 310.328 270.161 309.964 270.656C309.599 271.146 309.417 271.88 309.417 272.859ZM319.447 277H317.549V265H319.447V277ZM327.087 276.172C326.53 276.828 325.738 277.156 324.712 277.156C323.795 277.156 323.1 276.888 322.626 276.352C322.157 275.815 321.923 275.039 321.923 274.023V268.547H323.821V274C323.821 275.073 324.266 275.609 325.157 275.609C326.079 275.609 326.701 275.279 327.024 274.617V268.547H328.923V277H327.134L327.087 276.172ZM333.32 277H331.422V268.547H333.32V277ZM331.305 266.352C331.305 266.06 331.396 265.818 331.578 265.625C331.766 265.432 332.031 265.336 332.375 265.336C332.719 265.336 332.984 265.432 333.172 265.625C333.359 265.818 333.453 266.06 333.453 266.352C333.453 266.638 333.359 266.878 333.172 267.07C332.984 267.258 332.719 267.352 332.375 267.352C332.031 267.352 331.766 267.258 331.578 267.07C331.396 266.878 331.305 266.638 331.305 266.352ZM337.601 268.547L337.655 269.523C338.28 268.768 339.101 268.391 340.116 268.391C341.877 268.391 342.773 269.398 342.804 271.414V277H340.905V271.523C340.905 270.987 340.788 270.591 340.554 270.336C340.325 270.076 339.947 269.945 339.421 269.945C338.655 269.945 338.085 270.292 337.71 270.984V277H335.812V268.547H337.601ZM344.834 272.711C344.834 271.409 345.136 270.365 345.74 269.578C346.345 268.786 347.154 268.391 348.17 268.391C349.066 268.391 349.79 268.703 350.342 269.328V265H352.24V277H350.522L350.428 276.125C349.86 276.812 349.102 277.156 348.154 277.156C347.165 277.156 346.363 276.758 345.748 275.961C345.139 275.164 344.834 274.081 344.834 272.711ZM346.733 272.875C346.733 273.734 346.897 274.406 347.225 274.891C347.558 275.37 348.029 275.609 348.639 275.609C349.415 275.609 349.983 275.263 350.342 274.57V270.961C349.993 270.284 349.431 269.945 348.654 269.945C348.04 269.945 347.566 270.19 347.233 270.68C346.899 271.164 346.733 271.896 346.733 272.875ZM354.31 272.695C354.31 271.867 354.474 271.122 354.802 270.461C355.13 269.794 355.591 269.284 356.185 268.93C356.779 268.57 357.461 268.391 358.232 268.391C359.372 268.391 360.297 268.758 361.005 269.492C361.719 270.227 362.104 271.201 362.161 272.414L362.169 272.859C362.169 273.693 362.008 274.438 361.685 275.094C361.367 275.75 360.909 276.258 360.31 276.617C359.716 276.977 359.029 277.156 358.247 277.156C357.055 277.156 356.099 276.76 355.38 275.969C354.667 275.172 354.31 274.112 354.31 272.789V272.695ZM356.208 272.859C356.208 273.729 356.388 274.411 356.747 274.906C357.107 275.396 357.607 275.641 358.247 275.641C358.888 275.641 359.385 275.391 359.74 274.891C360.099 274.391 360.279 273.659 360.279 272.695C360.279 271.841 360.094 271.164 359.724 270.664C359.359 270.164 358.862 269.914 358.232 269.914C357.612 269.914 357.12 270.161 356.755 270.656C356.391 271.146 356.208 271.88 356.208 272.859ZM364.489 279.562L363.465 278.953C363.767 278.479 363.973 278.065 364.082 277.711C364.197 277.362 364.257 277.005 364.262 276.641V275.164H365.973L365.965 276.531C365.96 277.083 365.819 277.635 365.543 278.188C365.273 278.745 364.921 279.203 364.489 279.562ZM376.331 277.156C375.128 277.156 374.151 276.779 373.401 276.023C372.656 275.263 372.284 274.253 372.284 272.992V272.758C372.284 271.914 372.445 271.161 372.768 270.5C373.096 269.833 373.555 269.315 374.143 268.945C374.732 268.576 375.388 268.391 376.112 268.391C377.263 268.391 378.151 268.758 378.776 269.492C379.406 270.227 379.721 271.266 379.721 272.609V273.375H374.198C374.255 274.073 374.487 274.625 374.893 275.031C375.305 275.438 375.82 275.641 376.44 275.641C377.31 275.641 378.018 275.289 378.565 274.586L379.589 275.562C379.25 276.068 378.797 276.461 378.229 276.742C377.667 277.018 377.034 277.156 376.331 277.156ZM376.104 269.914C375.583 269.914 375.161 270.096 374.839 270.461C374.521 270.826 374.318 271.333 374.229 271.984H377.846V271.844C377.805 271.208 377.635 270.729 377.339 270.406C377.042 270.078 376.63 269.914 376.104 269.914ZM110.734 296.547L110.789 297.523C111.414 296.768 112.234 296.391 113.25 296.391C115.01 296.391 115.906 297.398 115.938 299.414V305H114.039V299.523C114.039 298.987 113.922 298.591 113.688 298.336C113.458 298.076 113.081 297.945 112.555 297.945C111.789 297.945 111.219 298.292 110.844 298.984V305H108.945V296.547H110.734ZM117.968 300.695C117.968 299.867 118.132 299.122 118.46 298.461C118.788 297.794 119.249 297.284 119.843 296.93C120.437 296.57 121.119 296.391 121.89 296.391C123.03 296.391 123.955 296.758 124.663 297.492C125.377 298.227 125.762 299.201 125.819 300.414L125.827 300.859C125.827 301.693 125.666 302.438 125.343 303.094C125.025 303.75 124.567 304.258 123.968 304.617C123.374 304.977 122.687 305.156 121.905 305.156C120.713 305.156 119.757 304.76 119.038 303.969C118.325 303.172 117.968 302.112 117.968 300.789V300.695ZM119.866 300.859C119.866 301.729 120.046 302.411 120.405 302.906C120.765 303.396 121.265 303.641 121.905 303.641C122.546 303.641 123.043 303.391 123.398 302.891C123.757 302.391 123.937 301.659 123.937 300.695C123.937 299.841 123.752 299.164 123.382 298.664C123.017 298.164 122.52 297.914 121.89 297.914C121.27 297.914 120.778 298.161 120.413 298.656C120.049 299.146 119.866 299.88 119.866 300.859ZM122.413 293H124.577L122.413 295.367H120.89L122.413 293ZM132.615 302.703C132.615 302.365 132.475 302.107 132.194 301.93C131.918 301.753 131.457 301.596 130.811 301.461C130.165 301.326 129.626 301.154 129.194 300.945C128.246 300.487 127.772 299.823 127.772 298.953C127.772 298.224 128.079 297.615 128.694 297.125C129.308 296.635 130.089 296.391 131.037 296.391C132.048 296.391 132.863 296.641 133.483 297.141C134.108 297.641 134.42 298.289 134.42 299.086H132.522C132.522 298.721 132.386 298.419 132.115 298.18C131.845 297.935 131.485 297.812 131.037 297.812C130.621 297.812 130.28 297.909 130.014 298.102C129.753 298.294 129.623 298.552 129.623 298.875C129.623 299.167 129.746 299.393 129.99 299.555C130.235 299.716 130.73 299.88 131.475 300.047C132.22 300.208 132.803 300.404 133.225 300.633C133.652 300.857 133.967 301.128 134.17 301.445C134.378 301.763 134.483 302.148 134.483 302.602C134.483 303.362 134.168 303.979 133.537 304.453C132.907 304.922 132.082 305.156 131.061 305.156C130.368 305.156 129.751 305.031 129.209 304.781C128.668 304.531 128.246 304.188 127.944 303.75C127.641 303.312 127.49 302.841 127.49 302.336H129.334C129.36 302.784 129.53 303.13 129.842 303.375C130.155 303.615 130.569 303.734 131.084 303.734C131.584 303.734 131.964 303.641 132.225 303.453C132.485 303.26 132.615 303.01 132.615 302.703ZM146.067 305C145.984 304.839 145.911 304.576 145.848 304.211C145.244 304.841 144.504 305.156 143.629 305.156C142.78 305.156 142.088 304.914 141.551 304.43C141.015 303.945 140.747 303.346 140.747 302.633C140.747 301.732 141.08 301.042 141.747 300.562C142.418 300.078 143.377 299.836 144.622 299.836H145.786V299.281C145.786 298.844 145.663 298.495 145.418 298.234C145.174 297.969 144.801 297.836 144.301 297.836C143.869 297.836 143.515 297.945 143.239 298.164C142.963 298.378 142.825 298.651 142.825 298.984H140.926C140.926 298.521 141.08 298.089 141.387 297.688C141.694 297.281 142.111 296.964 142.637 296.734C143.168 296.505 143.76 296.391 144.411 296.391C145.4 296.391 146.189 296.641 146.778 297.141C147.366 297.635 147.668 298.333 147.684 299.234V303.047C147.684 303.807 147.791 304.414 148.004 304.867V305H146.067ZM143.981 303.633C144.356 303.633 144.707 303.542 145.036 303.359C145.369 303.177 145.619 302.932 145.786 302.625V301.031H144.762C144.059 301.031 143.53 301.154 143.176 301.398C142.822 301.643 142.645 301.99 142.645 302.438C142.645 302.802 142.765 303.094 143.004 303.312C143.249 303.526 143.575 303.633 143.981 303.633ZM157.519 300.859C157.519 302.167 157.222 303.211 156.628 303.992C156.035 304.768 155.238 305.156 154.238 305.156C153.311 305.156 152.569 304.852 152.011 304.242V308.25H150.113V296.547H151.863L151.941 297.406C152.498 296.729 153.256 296.391 154.214 296.391C155.246 296.391 156.053 296.776 156.636 297.547C157.225 298.312 157.519 299.378 157.519 300.742V300.859ZM155.628 300.695C155.628 299.852 155.459 299.182 155.121 298.688C154.787 298.193 154.308 297.945 153.683 297.945C152.907 297.945 152.35 298.266 152.011 298.906V302.656C152.355 303.312 152.918 303.641 153.699 303.641C154.303 303.641 154.774 303.398 155.113 302.914C155.457 302.424 155.628 301.685 155.628 300.695ZM164.003 298.281C163.753 298.24 163.495 298.219 163.229 298.219C162.359 298.219 161.773 298.552 161.471 299.219V305H159.573V296.547H161.385L161.432 297.492C161.891 296.758 162.526 296.391 163.339 296.391C163.609 296.391 163.833 296.427 164.01 296.5L164.003 298.281ZM169.213 305.156C168.01 305.156 167.033 304.779 166.283 304.023C165.538 303.263 165.166 302.253 165.166 300.992V300.758C165.166 299.914 165.327 299.161 165.65 298.5C165.978 297.833 166.437 297.315 167.025 296.945C167.614 296.576 168.27 296.391 168.994 296.391C170.145 296.391 171.033 296.758 171.658 297.492C172.288 298.227 172.603 299.266 172.603 300.609V301.375H167.08C167.137 302.073 167.369 302.625 167.775 303.031C168.187 303.438 168.702 303.641 169.322 303.641C170.192 303.641 170.9 303.289 171.447 302.586L172.47 303.562C172.132 304.068 171.679 304.461 171.111 304.742C170.549 305.018 169.916 305.156 169.213 305.156ZM168.986 297.914C168.465 297.914 168.043 298.096 167.72 298.461C167.403 298.826 167.2 299.333 167.111 299.984H170.728V299.844C170.687 299.208 170.517 298.729 170.22 298.406C169.924 298.078 169.512 297.914 168.986 297.914ZM176.29 296.547L176.345 297.523C176.97 296.768 177.79 296.391 178.806 296.391C180.566 296.391 181.462 297.398 181.493 299.414V305H179.595V299.523C179.595 298.987 179.477 298.591 179.243 298.336C179.014 298.076 178.636 297.945 178.11 297.945C177.345 297.945 176.774 298.292 176.399 298.984V305H174.501V296.547H176.29ZM183.523 300.711C183.523 299.409 183.826 298.365 184.43 297.578C185.034 296.786 185.844 296.391 186.859 296.391C187.755 296.391 188.479 296.703 189.031 297.328V293H190.93V305H189.211L189.117 304.125C188.549 304.812 187.792 305.156 186.844 305.156C185.854 305.156 185.052 304.758 184.437 303.961C183.828 303.164 183.523 302.081 183.523 300.711ZM185.422 300.875C185.422 301.734 185.586 302.406 185.914 302.891C186.247 303.37 186.719 303.609 187.328 303.609C188.104 303.609 188.672 303.263 189.031 302.57V298.961C188.682 298.284 188.12 297.945 187.344 297.945C186.729 297.945 186.255 298.19 185.922 298.68C185.589 299.164 185.422 299.896 185.422 300.875ZM197.077 305.156C195.874 305.156 194.898 304.779 194.148 304.023C193.403 303.263 193.03 302.253 193.03 300.992V300.758C193.03 299.914 193.192 299.161 193.515 298.5C193.843 297.833 194.301 297.315 194.89 296.945C195.478 296.576 196.135 296.391 196.859 296.391C198.01 296.391 198.898 296.758 199.523 297.492C200.153 298.227 200.468 299.266 200.468 300.609V301.375H194.944C195.002 302.073 195.234 302.625 195.64 303.031C196.051 303.438 196.567 303.641 197.187 303.641C198.056 303.641 198.765 303.289 199.312 302.586L200.335 303.562C199.997 304.068 199.543 304.461 198.976 304.742C198.413 305.018 197.78 305.156 197.077 305.156ZM196.851 297.914C196.33 297.914 195.908 298.096 195.585 298.461C195.267 298.826 195.064 299.333 194.976 299.984H198.593V299.844C198.551 299.208 198.382 298.729 198.085 298.406C197.788 298.078 197.377 297.914 196.851 297.914ZM204.178 296.547L204.233 297.43C204.826 296.737 205.639 296.391 206.67 296.391C207.8 296.391 208.574 296.823 208.99 297.688C209.605 296.823 210.47 296.391 211.584 296.391C212.516 296.391 213.209 296.648 213.662 297.164C214.121 297.68 214.355 298.44 214.365 299.445V305H212.467V299.5C212.467 298.964 212.35 298.57 212.115 298.32C211.881 298.07 211.493 297.945 210.951 297.945C210.519 297.945 210.165 298.062 209.889 298.297C209.618 298.526 209.428 298.828 209.319 299.203L209.326 305H207.428V299.438C207.402 298.443 206.894 297.945 205.905 297.945C205.144 297.945 204.605 298.255 204.287 298.875V305H202.389V296.547H204.178ZM216.404 300.695C216.404 299.867 216.568 299.122 216.896 298.461C217.224 297.794 217.685 297.284 218.279 296.93C218.872 296.57 219.555 296.391 220.326 296.391C221.466 296.391 222.391 296.758 223.099 297.492C223.812 298.227 224.198 299.201 224.255 300.414L224.263 300.859C224.263 301.693 224.102 302.438 223.779 303.094C223.461 303.75 223.003 304.258 222.404 304.617C221.81 304.977 221.122 305.156 220.341 305.156C219.148 305.156 218.193 304.76 217.474 303.969C216.76 303.172 216.404 302.112 216.404 300.789V300.695ZM218.302 300.859C218.302 301.729 218.482 302.411 218.841 302.906C219.201 303.396 219.701 303.641 220.341 303.641C220.982 303.641 221.479 303.391 221.833 302.891C222.193 302.391 222.372 301.659 222.372 300.695C222.372 299.841 222.187 299.164 221.818 298.664C221.453 298.164 220.956 297.914 220.326 297.914C219.706 297.914 219.214 298.161 218.849 298.656C218.484 299.146 218.302 299.88 218.302 300.859ZM231.051 302.703C231.051 302.365 230.911 302.107 230.629 301.93C230.353 301.753 229.892 301.596 229.247 301.461C228.601 301.326 228.062 301.154 227.629 300.945C226.681 300.487 226.207 299.823 226.207 298.953C226.207 298.224 226.515 297.615 227.129 297.125C227.744 296.635 228.525 296.391 229.473 296.391C230.484 296.391 231.299 296.641 231.918 297.141C232.543 297.641 232.856 298.289 232.856 299.086H230.957C230.957 298.721 230.822 298.419 230.551 298.18C230.28 297.935 229.921 297.812 229.473 297.812C229.056 297.812 228.715 297.909 228.45 298.102C228.189 298.294 228.059 298.552 228.059 298.875C228.059 299.167 228.181 299.393 228.426 299.555C228.671 299.716 229.166 299.88 229.911 300.047C230.655 300.208 231.239 300.404 231.661 300.633C232.088 300.857 232.403 301.128 232.606 301.445C232.814 301.763 232.918 302.148 232.918 302.602C232.918 303.362 232.603 303.979 231.973 304.453C231.343 304.922 230.517 305.156 229.497 305.156C228.804 305.156 228.187 305.031 227.645 304.781C227.103 304.531 226.681 304.188 226.379 303.75C226.077 303.312 225.926 302.841 225.926 302.336H227.77C227.796 302.784 227.965 303.13 228.278 303.375C228.59 303.615 229.004 303.734 229.52 303.734C230.02 303.734 230.4 303.641 230.661 303.453C230.921 303.26 231.051 303.01 231.051 302.703ZM244.503 305C244.419 304.839 244.346 304.576 244.284 304.211C243.68 304.841 242.94 305.156 242.065 305.156C241.216 305.156 240.523 304.914 239.987 304.43C239.451 303.945 239.182 303.346 239.182 302.633C239.182 301.732 239.516 301.042 240.182 300.562C240.854 300.078 241.812 299.836 243.057 299.836H244.221V299.281C244.221 298.844 244.099 298.495 243.854 298.234C243.609 297.969 243.237 297.836 242.737 297.836C242.305 297.836 241.951 297.945 241.674 298.164C241.398 298.378 241.26 298.651 241.26 298.984H239.362C239.362 298.521 239.516 298.089 239.823 297.688C240.13 297.281 240.547 296.964 241.073 296.734C241.604 296.505 242.195 296.391 242.846 296.391C243.836 296.391 244.625 296.641 245.214 297.141C245.802 297.635 246.104 298.333 246.12 299.234V303.047C246.12 303.807 246.227 304.414 246.44 304.867V305H244.503ZM242.417 303.633C242.792 303.633 243.143 303.542 243.471 303.359C243.805 303.177 244.055 302.932 244.221 302.625V301.031H243.198C242.495 301.031 241.966 301.154 241.612 301.398C241.258 301.643 241.081 301.99 241.081 302.438C241.081 302.802 241.201 303.094 241.44 303.312C241.685 303.526 242.01 303.633 242.417 303.633ZM252.626 300.711C252.626 299.409 252.928 298.365 253.532 297.578C254.136 296.786 254.946 296.391 255.962 296.391C256.858 296.391 257.582 296.703 258.134 297.328V293H260.032V305H258.313L258.22 304.125C257.652 304.812 256.894 305.156 255.946 305.156C254.957 305.156 254.155 304.758 253.54 303.961C252.931 303.164 252.626 302.081 252.626 300.711ZM254.524 300.875C254.524 301.734 254.688 302.406 255.016 302.891C255.35 303.37 255.821 303.609 256.431 303.609C257.207 303.609 257.774 303.263 258.134 302.57V298.961C257.785 298.284 257.222 297.945 256.446 297.945C255.832 297.945 255.358 298.19 255.024 298.68C254.691 299.164 254.524 299.896 254.524 300.875ZM266.18 305.156C264.977 305.156 264 304.779 263.25 304.023C262.505 303.263 262.133 302.253 262.133 300.992V300.758C262.133 299.914 262.294 299.161 262.617 298.5C262.945 297.833 263.404 297.315 263.992 296.945C264.581 296.576 265.237 296.391 265.961 296.391C267.112 296.391 268 296.758 268.625 297.492C269.255 298.227 269.57 299.266 269.57 300.609V301.375H264.047C264.104 302.073 264.336 302.625 264.742 303.031C265.154 303.438 265.669 303.641 266.289 303.641C267.159 303.641 267.867 303.289 268.414 302.586L269.437 303.562C269.099 304.068 268.646 304.461 268.078 304.742C267.516 305.018 266.883 305.156 266.18 305.156ZM265.953 297.914C265.432 297.914 265.01 298.096 264.687 298.461C264.37 298.826 264.167 299.333 264.078 299.984H267.695V299.844C267.654 299.208 267.484 298.729 267.187 298.406C266.891 298.078 266.479 297.914 265.953 297.914ZM273.515 305H271.616V296.547H273.515V305ZM271.499 294.352C271.499 294.06 271.59 293.818 271.773 293.625C271.96 293.432 272.226 293.336 272.569 293.336C272.913 293.336 273.179 293.432 273.366 293.625C273.554 293.818 273.648 294.06 273.648 294.352C273.648 294.638 273.554 294.878 273.366 295.07C273.179 295.258 272.913 295.352 272.569 295.352C272.226 295.352 271.96 295.258 271.773 295.07C271.59 294.878 271.499 294.638 271.499 294.352ZM279.069 299.328L280.678 296.547H282.787L280.201 300.711L282.873 305H280.78L279.092 302.109L277.412 305H275.303L277.975 300.711L275.397 296.547H277.49L279.069 299.328ZM289.576 305C289.492 304.839 289.419 304.576 289.357 304.211C288.753 304.841 288.013 305.156 287.138 305.156C286.289 305.156 285.596 304.914 285.06 304.43C284.523 303.945 284.255 303.346 284.255 302.633C284.255 301.732 284.589 301.042 285.255 300.562C285.927 300.078 286.885 299.836 288.13 299.836H289.294V299.281C289.294 298.844 289.172 298.495 288.927 298.234C288.682 297.969 288.31 297.836 287.81 297.836C287.378 297.836 287.023 297.945 286.747 298.164C286.471 298.378 286.333 298.651 286.333 298.984H284.435C284.435 298.521 284.589 298.089 284.896 297.688C285.203 297.281 285.62 296.964 286.146 296.734C286.677 296.505 287.268 296.391 287.919 296.391C288.909 296.391 289.698 296.641 290.286 297.141C290.875 297.635 291.177 298.333 291.193 299.234V303.047C291.193 303.807 291.299 304.414 291.513 304.867V305H289.576ZM287.49 303.633C287.865 303.633 288.216 303.542 288.544 303.359C288.878 303.177 289.128 302.932 289.294 302.625V301.031H288.271C287.568 301.031 287.039 301.154 286.685 301.398C286.331 301.643 286.154 301.99 286.154 302.438C286.154 302.802 286.273 303.094 286.513 303.312C286.758 303.526 287.083 303.633 287.49 303.633ZM298.051 298.281C297.801 298.24 297.543 298.219 297.278 298.219C296.408 298.219 295.822 298.552 295.52 299.219V305H293.622V296.547H295.434L295.481 297.492C295.939 296.758 296.575 296.391 297.387 296.391C297.658 296.391 297.882 296.427 298.059 296.5L298.051 298.281ZM303.768 300.695C303.768 299.867 303.932 299.122 304.26 298.461C304.589 297.794 305.049 297.284 305.643 296.93C306.237 296.57 306.919 296.391 307.69 296.391C308.831 296.391 309.755 296.758 310.464 297.492C311.177 298.227 311.562 299.201 311.62 300.414L311.628 300.859C311.628 301.693 311.466 302.438 311.143 303.094C310.826 303.75 310.367 304.258 309.768 304.617C309.174 304.977 308.487 305.156 307.706 305.156C306.513 305.156 305.557 304.76 304.839 303.969C304.125 303.172 303.768 302.112 303.768 300.789V300.695ZM305.667 300.859C305.667 301.729 305.846 302.411 306.206 302.906C306.565 303.396 307.065 303.641 307.706 303.641C308.346 303.641 308.844 303.391 309.198 302.891C309.557 302.391 309.737 301.659 309.737 300.695C309.737 299.841 309.552 299.164 309.182 298.664C308.818 298.164 308.32 297.914 307.69 297.914C307.07 297.914 306.578 298.161 306.214 298.656C305.849 299.146 305.667 299.88 305.667 300.859ZM319.868 296.547L319.923 297.523C320.548 296.768 321.368 296.391 322.384 296.391C324.144 296.391 325.04 297.398 325.071 299.414V305H323.173V299.523C323.173 298.987 323.056 298.591 322.821 298.336C322.592 298.076 322.214 297.945 321.688 297.945C320.923 297.945 320.352 298.292 319.977 298.984V305H318.079V296.547H319.868ZM327.102 300.695C327.102 299.867 327.266 299.122 327.594 298.461C327.922 297.794 328.383 297.284 328.977 296.93C329.57 296.57 330.253 296.391 331.023 296.391C332.164 296.391 333.089 296.758 333.797 297.492C334.51 298.227 334.896 299.201 334.953 300.414L334.961 300.859C334.961 301.693 334.799 302.438 334.477 303.094C334.159 303.75 333.701 304.258 333.102 304.617C332.508 304.977 331.82 305.156 331.039 305.156C329.846 305.156 328.891 304.76 328.172 303.969C327.458 303.172 327.102 302.112 327.102 300.789V300.695ZM329 300.859C329 301.729 329.18 302.411 329.539 302.906C329.898 303.396 330.398 303.641 331.039 303.641C331.68 303.641 332.177 303.391 332.531 302.891C332.891 302.391 333.07 301.659 333.07 300.695C333.07 299.841 332.885 299.164 332.516 298.664C332.151 298.164 331.654 297.914 331.023 297.914C330.404 297.914 329.911 298.161 329.547 298.656C329.182 299.146 329 299.88 329 300.859ZM341.749 302.703C341.749 302.365 341.608 302.107 341.327 301.93C341.051 301.753 340.59 301.596 339.944 301.461C339.299 301.326 338.76 301.154 338.327 300.945C337.379 300.487 336.905 299.823 336.905 298.953C336.905 298.224 337.213 297.615 337.827 297.125C338.442 296.635 339.223 296.391 340.171 296.391C341.181 296.391 341.997 296.641 342.616 297.141C343.241 297.641 343.554 298.289 343.554 299.086H341.655C341.655 298.721 341.52 298.419 341.249 298.18C340.978 297.935 340.619 297.812 340.171 297.812C339.754 297.812 339.413 297.909 339.148 298.102C338.887 298.294 338.757 298.552 338.757 298.875C338.757 299.167 338.879 299.393 339.124 299.555C339.369 299.716 339.864 299.88 340.608 300.047C341.353 300.208 341.937 300.404 342.358 300.633C342.786 300.857 343.101 301.128 343.304 301.445C343.512 301.763 343.616 302.148 343.616 302.602C343.616 303.362 343.301 303.979 342.671 304.453C342.041 304.922 341.215 305.156 340.194 305.156C339.502 305.156 338.885 305.031 338.343 304.781C337.801 304.531 337.379 304.188 337.077 303.75C336.775 303.312 336.624 302.841 336.624 302.336H338.468C338.494 302.784 338.663 303.13 338.976 303.375C339.288 303.615 339.702 303.734 340.218 303.734C340.718 303.734 341.098 303.641 341.358 303.453C341.619 303.26 341.749 303.01 341.749 302.703ZM350.459 302.703C350.459 302.365 350.319 302.107 350.037 301.93C349.761 301.753 349.3 301.596 348.654 301.461C348.009 301.326 347.47 301.154 347.037 300.945C346.089 300.487 345.615 299.823 345.615 298.953C345.615 298.224 345.923 297.615 346.537 297.125C347.152 296.635 347.933 296.391 348.881 296.391C349.891 296.391 350.707 296.641 351.326 297.141C351.951 297.641 352.264 298.289 352.264 299.086H350.365C350.365 298.721 350.23 298.419 349.959 298.18C349.688 297.935 349.329 297.812 348.881 297.812C348.464 297.812 348.123 297.909 347.858 298.102C347.597 298.294 347.467 298.552 347.467 298.875C347.467 299.167 347.589 299.393 347.834 299.555C348.079 299.716 348.574 299.88 349.319 300.047C350.063 300.208 350.647 300.404 351.069 300.633C351.496 300.857 351.811 301.128 352.014 301.445C352.222 301.763 352.326 302.148 352.326 302.602C352.326 303.362 352.011 303.979 351.381 304.453C350.751 304.922 349.925 305.156 348.904 305.156C348.212 305.156 347.595 305.031 347.053 304.781C346.511 304.531 346.089 304.188 345.787 303.75C345.485 303.312 345.334 302.841 345.334 302.336H347.178C347.204 302.784 347.373 303.13 347.686 303.375C347.998 303.615 348.412 303.734 348.928 303.734C349.428 303.734 349.808 303.641 350.069 303.453C350.329 303.26 350.459 303.01 350.459 302.703ZM354.076 300.695C354.076 299.867 354.24 299.122 354.568 298.461C354.896 297.794 355.357 297.284 355.951 296.93C356.544 296.57 357.227 296.391 357.997 296.391C359.138 296.391 360.062 296.758 360.771 297.492C361.484 298.227 361.87 299.201 361.927 300.414L361.935 300.859C361.935 301.693 361.773 302.438 361.451 303.094C361.133 303.75 360.674 304.258 360.076 304.617C359.482 304.977 358.794 305.156 358.013 305.156C356.82 305.156 355.865 304.76 355.146 303.969C354.432 303.172 354.076 302.112 354.076 300.789V300.695ZM355.974 300.859C355.974 301.729 356.154 302.411 356.513 302.906C356.872 303.396 357.372 303.641 358.013 303.641C358.654 303.641 359.151 303.391 359.505 302.891C359.865 302.391 360.044 301.659 360.044 300.695C360.044 299.841 359.859 299.164 359.49 298.664C359.125 298.164 358.628 297.914 357.997 297.914C357.378 297.914 356.885 298.161 356.521 298.656C356.156 299.146 355.974 299.88 355.974 300.859ZM116.375 328.859C116.375 330.167 116.078 331.211 115.484 331.992C114.891 332.768 114.094 333.156 113.094 333.156C112.167 333.156 111.424 332.852 110.867 332.242V336.25H108.969V324.547H110.719L110.797 325.406C111.354 324.729 112.112 324.391 113.07 324.391C114.102 324.391 114.909 324.776 115.492 325.547C116.081 326.312 116.375 327.378 116.375 328.742V328.859ZM114.484 328.695C114.484 327.852 114.315 327.182 113.977 326.688C113.643 326.193 113.164 325.945 112.539 325.945C111.763 325.945 111.206 326.266 110.867 326.906V330.656C111.211 331.312 111.773 331.641 112.555 331.641C113.159 331.641 113.63 331.398 113.969 330.914C114.312 330.424 114.484 329.685 114.484 328.695ZM122.859 326.281C122.609 326.24 122.351 326.219 122.085 326.219C121.215 326.219 120.629 326.552 120.327 327.219V333H118.429V324.547H120.241L120.288 325.492C120.747 324.758 121.382 324.391 122.194 324.391C122.465 324.391 122.689 324.427 122.866 324.5L122.859 326.281ZM123.865 328.695C123.865 327.867 124.03 327.122 124.358 326.461C124.686 325.794 125.147 325.284 125.74 324.93C126.334 324.57 127.016 324.391 127.787 324.391C128.928 324.391 129.852 324.758 130.561 325.492C131.274 326.227 131.66 327.201 131.717 328.414L131.725 328.859C131.725 329.693 131.563 330.438 131.24 331.094C130.923 331.75 130.464 332.258 129.865 332.617C129.272 332.977 128.584 333.156 127.803 333.156C126.61 333.156 125.655 332.76 124.936 331.969C124.222 331.172 123.865 330.112 123.865 328.789V328.695ZM125.764 328.859C125.764 329.729 125.944 330.411 126.303 330.906C126.662 331.396 127.162 331.641 127.803 331.641C128.444 331.641 128.941 331.391 129.295 330.891C129.655 330.391 129.834 329.659 129.834 328.695C129.834 327.841 129.649 327.164 129.28 326.664C128.915 326.164 128.418 325.914 127.787 325.914C127.168 325.914 126.675 326.161 126.311 326.656C125.946 327.146 125.764 327.88 125.764 328.859ZM137.247 331.641C137.721 331.641 138.115 331.503 138.427 331.227C138.74 330.951 138.906 330.609 138.927 330.203H140.716C140.695 330.729 140.531 331.221 140.224 331.68C139.917 332.133 139.5 332.492 138.974 332.758C138.448 333.023 137.88 333.156 137.271 333.156C136.089 333.156 135.151 332.773 134.458 332.008C133.766 331.242 133.419 330.185 133.419 328.836V328.641C133.419 327.354 133.763 326.326 134.451 325.555C135.138 324.779 136.076 324.391 137.263 324.391C138.268 324.391 139.086 324.685 139.716 325.273C140.352 325.857 140.685 326.625 140.716 327.578H138.927C138.906 327.094 138.74 326.695 138.427 326.383C138.12 326.07 137.727 325.914 137.247 325.914C136.633 325.914 136.159 326.138 135.826 326.586C135.492 327.029 135.323 327.703 135.318 328.609V328.914C135.318 329.831 135.482 330.516 135.81 330.969C136.143 331.417 136.622 331.641 137.247 331.641ZM146.317 333.156C145.114 333.156 144.137 332.779 143.387 332.023C142.642 331.263 142.27 330.253 142.27 328.992V328.758C142.27 327.914 142.431 327.161 142.754 326.5C143.082 325.833 143.541 325.315 144.129 324.945C144.718 324.576 145.374 324.391 146.098 324.391C147.249 324.391 148.137 324.758 148.762 325.492C149.392 326.227 149.707 327.266 149.707 328.609V329.375H144.184C144.241 330.073 144.473 330.625 144.879 331.031C145.291 331.438 145.806 331.641 146.426 331.641C147.296 331.641 148.004 331.289 148.551 330.586L149.575 331.562C149.236 332.068 148.783 332.461 148.215 332.742C147.653 333.018 147.02 333.156 146.317 333.156ZM146.09 325.914C145.569 325.914 145.148 326.096 144.825 326.461C144.507 326.826 144.304 327.333 144.215 327.984H147.832V327.844C147.791 327.208 147.622 326.729 147.325 326.406C147.028 326.078 146.616 325.914 146.09 325.914ZM156.371 330.703C156.371 330.365 156.23 330.107 155.949 329.93C155.673 329.753 155.212 329.596 154.566 329.461C153.92 329.326 153.381 329.154 152.949 328.945C152.001 328.487 151.527 327.823 151.527 326.953C151.527 326.224 151.834 325.615 152.449 325.125C153.063 324.635 153.845 324.391 154.793 324.391C155.803 324.391 156.618 324.641 157.238 325.141C157.863 325.641 158.175 326.289 158.175 327.086H156.277C156.277 326.721 156.141 326.419 155.871 326.18C155.6 325.935 155.24 325.812 154.793 325.812C154.376 325.812 154.035 325.909 153.769 326.102C153.509 326.294 153.378 326.552 153.378 326.875C153.378 327.167 153.501 327.393 153.746 327.555C153.99 327.716 154.485 327.88 155.23 328.047C155.975 328.208 156.558 328.404 156.98 328.633C157.407 328.857 157.722 329.128 157.925 329.445C158.134 329.763 158.238 330.148 158.238 330.602C158.238 331.362 157.923 331.979 157.293 332.453C156.662 332.922 155.837 333.156 154.816 333.156C154.123 333.156 153.506 333.031 152.964 332.781C152.423 332.531 152.001 332.188 151.699 331.75C151.397 331.312 151.246 330.841 151.246 330.336H153.089C153.115 330.784 153.285 331.13 153.597 331.375C153.91 331.615 154.324 331.734 154.839 331.734C155.339 331.734 155.72 331.641 155.98 331.453C156.24 331.26 156.371 331.01 156.371 330.703ZM165.081 330.703C165.081 330.365 164.94 330.107 164.659 329.93C164.383 329.753 163.922 329.596 163.276 329.461C162.63 329.326 162.091 329.154 161.659 328.945C160.711 328.487 160.237 327.823 160.237 326.953C160.237 326.224 160.544 325.615 161.159 325.125C161.773 324.635 162.555 324.391 163.503 324.391C164.513 324.391 165.328 324.641 165.948 325.141C166.573 325.641 166.885 326.289 166.885 327.086H164.987C164.987 326.721 164.852 326.419 164.581 326.18C164.31 325.935 163.951 325.812 163.503 325.812C163.086 325.812 162.745 325.909 162.479 326.102C162.219 326.294 162.089 326.552 162.089 326.875C162.089 327.167 162.211 327.393 162.456 327.555C162.701 327.716 163.195 327.88 163.94 328.047C164.685 328.208 165.268 328.404 165.69 328.633C166.117 328.857 166.432 329.128 166.635 329.445C166.844 329.763 166.948 330.148 166.948 330.602C166.948 331.362 166.633 331.979 166.003 332.453C165.372 332.922 164.547 333.156 163.526 333.156C162.833 333.156 162.216 333.031 161.674 332.781C161.133 332.531 160.711 332.188 160.409 331.75C160.107 331.312 159.956 330.841 159.956 330.336H161.799C161.826 330.784 161.995 331.13 162.307 331.375C162.62 331.615 163.034 331.734 163.549 331.734C164.049 331.734 164.43 331.641 164.69 331.453C164.951 331.26 165.081 331.01 165.081 330.703ZM168.697 328.695C168.697 327.867 168.861 327.122 169.189 326.461C169.517 325.794 169.978 325.284 170.572 324.93C171.166 324.57 171.848 324.391 172.619 324.391C173.76 324.391 174.684 324.758 175.392 325.492C176.106 326.227 176.491 327.201 176.549 328.414L176.556 328.859C176.556 329.693 176.395 330.438 176.072 331.094C175.754 331.75 175.296 332.258 174.697 332.617C174.103 332.977 173.416 333.156 172.635 333.156C171.442 333.156 170.486 332.76 169.767 331.969C169.054 331.172 168.697 330.112 168.697 328.789V328.695ZM170.595 328.859C170.595 329.729 170.775 330.411 171.135 330.906C171.494 331.396 171.994 331.641 172.635 331.641C173.275 331.641 173.773 331.391 174.127 330.891C174.486 330.391 174.666 329.659 174.666 328.695C174.666 327.841 174.481 327.164 174.111 326.664C173.747 326.164 173.249 325.914 172.619 325.914C171.999 325.914 171.507 326.161 171.142 326.656C170.778 327.146 170.595 327.88 170.595 328.859ZM188.086 333C188.003 332.839 187.93 332.576 187.867 332.211C187.263 332.841 186.523 333.156 185.648 333.156C184.799 333.156 184.107 332.914 183.57 332.43C183.034 331.945 182.766 331.346 182.766 330.633C182.766 329.732 183.099 329.042 183.766 328.562C184.437 328.078 185.396 327.836 186.641 327.836H187.805V327.281C187.805 326.844 187.682 326.495 187.437 326.234C187.193 325.969 186.82 325.836 186.32 325.836C185.888 325.836 185.534 325.945 185.258 326.164C184.982 326.378 184.844 326.651 184.844 326.984H182.945C182.945 326.521 183.099 326.089 183.406 325.688C183.714 325.281 184.13 324.964 184.656 324.734C185.187 324.505 185.779 324.391 186.43 324.391C187.419 324.391 188.208 324.641 188.797 325.141C189.385 325.635 189.687 326.333 189.703 327.234V331.047C189.703 331.807 189.81 332.414 190.023 332.867V333H188.086ZM186 331.633C186.375 331.633 186.727 331.542 187.055 331.359C187.388 331.177 187.638 330.932 187.805 330.625V329.031H186.781C186.078 329.031 185.549 329.154 185.195 329.398C184.841 329.643 184.664 329.99 184.664 330.438C184.664 330.802 184.784 331.094 185.023 331.312C185.268 331.526 185.594 331.633 186 331.633ZM194.991 330.594L196.78 324.547H198.741L195.812 333H194.163L191.21 324.547H193.179L194.991 330.594ZM205.303 333C205.22 332.839 205.147 332.576 205.084 332.211C204.48 332.841 203.74 333.156 202.865 333.156C202.016 333.156 201.324 332.914 200.787 332.43C200.251 331.945 199.983 331.346 199.983 330.633C199.983 329.732 200.316 329.042 200.983 328.562C201.655 328.078 202.613 327.836 203.858 327.836H205.022V327.281C205.022 326.844 204.899 326.495 204.655 326.234C204.41 325.969 204.037 325.836 203.537 325.836C203.105 325.836 202.751 325.945 202.475 326.164C202.199 326.378 202.061 326.651 202.061 326.984H200.162C200.162 326.521 200.316 326.089 200.623 325.688C200.931 325.281 201.347 324.964 201.873 324.734C202.405 324.505 202.996 324.391 203.647 324.391C204.636 324.391 205.425 324.641 206.014 325.141C206.602 325.635 206.905 326.333 206.92 327.234V331.047C206.92 331.807 207.027 332.414 207.24 332.867V333H205.303ZM203.217 331.633C203.592 331.633 203.944 331.542 204.272 331.359C204.605 331.177 204.855 330.932 205.022 330.625V329.031H203.998C203.295 329.031 202.766 329.154 202.412 329.398C202.058 329.643 201.881 329.99 201.881 330.438C201.881 330.802 202.001 331.094 202.24 331.312C202.485 331.526 202.811 331.633 203.217 331.633ZM211.372 333H209.474V321H211.372V333ZM215.911 333H214.012V324.547H215.911V333ZM213.895 322.352C213.895 322.06 213.986 321.818 214.168 321.625C214.356 321.432 214.622 321.336 214.965 321.336C215.309 321.336 215.575 321.432 215.762 321.625C215.95 321.818 216.043 322.06 216.043 322.352C216.043 322.638 215.95 322.878 215.762 323.07C215.575 323.258 215.309 323.352 214.965 323.352C214.622 323.352 214.356 323.258 214.168 323.07C213.986 322.878 213.895 322.638 213.895 322.352ZM223.48 333C223.397 332.839 223.324 332.576 223.261 332.211C222.657 332.841 221.918 333.156 221.043 333.156C220.194 333.156 219.501 332.914 218.964 332.43C218.428 331.945 218.16 331.346 218.16 330.633C218.16 329.732 218.493 329.042 219.16 328.562C219.832 328.078 220.79 327.836 222.035 327.836H223.199V327.281C223.199 326.844 223.076 326.495 222.832 326.234C222.587 325.969 222.214 325.836 221.714 325.836C221.282 325.836 220.928 325.945 220.652 326.164C220.376 326.378 220.238 326.651 220.238 326.984H218.339C218.339 326.521 218.493 326.089 218.8 325.688C219.108 325.281 219.524 324.964 220.05 324.734C220.582 324.505 221.173 324.391 221.824 324.391C222.813 324.391 223.602 324.641 224.191 325.141C224.78 325.635 225.082 326.333 225.097 327.234V331.047C225.097 331.807 225.204 332.414 225.418 332.867V333H223.48ZM221.394 331.633C221.769 331.633 222.121 331.542 222.449 331.359C222.782 331.177 223.032 330.932 223.199 330.625V329.031H222.175C221.472 329.031 220.944 329.154 220.589 329.398C220.235 329.643 220.058 329.99 220.058 330.438C220.058 330.802 220.178 331.094 220.418 331.312C220.662 331.526 220.988 331.633 221.394 331.633ZM229.909 322.492V324.547H231.401V325.953H229.909V330.672C229.909 330.995 229.971 331.229 230.096 331.375C230.227 331.516 230.456 331.586 230.784 331.586C231.003 331.586 231.224 331.56 231.448 331.508V332.977C231.016 333.096 230.599 333.156 230.198 333.156C228.74 333.156 228.01 332.352 228.01 330.742V325.953H226.62V324.547H228.01V322.492H229.909ZM235.322 333H233.424V324.547H235.322V333ZM233.306 322.352C233.306 322.06 233.398 321.818 233.58 321.625C233.767 321.432 234.033 321.336 234.377 321.336C234.72 321.336 234.986 321.432 235.174 321.625C235.361 321.818 235.455 322.06 235.455 322.352C235.455 322.638 235.361 322.878 235.174 323.07C234.986 323.258 234.72 323.352 234.377 323.352C234.033 323.352 233.767 323.258 233.58 323.07C233.398 322.878 233.306 322.638 233.306 322.352ZM240.821 330.594L242.61 324.547H244.571L241.641 333H239.993L237.04 324.547H239.009L240.821 330.594ZM245.727 328.695C245.727 327.867 245.891 327.122 246.219 326.461C246.547 325.794 247.008 325.284 247.602 324.93C248.195 324.57 248.878 324.391 249.648 324.391C250.789 324.391 251.714 324.758 252.422 325.492C253.135 326.227 253.521 327.201 253.578 328.414L253.586 328.859C253.586 329.693 253.424 330.438 253.102 331.094C252.784 331.75 252.326 332.258 251.727 332.617C251.133 332.977 250.445 333.156 249.664 333.156C248.471 333.156 247.516 332.76 246.797 331.969C246.083 331.172 245.727 330.112 245.727 328.789V328.695ZM247.625 328.859C247.625 329.729 247.805 330.411 248.164 330.906C248.523 331.396 249.023 331.641 249.664 331.641C250.305 331.641 250.802 331.391 251.156 330.891C251.516 330.391 251.695 329.659 251.695 328.695C251.695 327.841 251.51 327.164 251.141 326.664C250.776 326.164 250.279 325.914 249.648 325.914C249.029 325.914 248.536 326.161 248.172 326.656C247.807 327.146 247.625 327.88 247.625 328.859ZM261.85 324.547L261.905 325.43C262.498 324.737 263.311 324.391 264.342 324.391C265.472 324.391 266.246 324.823 266.662 325.688C267.277 324.823 268.141 324.391 269.256 324.391C270.188 324.391 270.881 324.648 271.334 325.164C271.793 325.68 272.027 326.44 272.037 327.445V333H270.139V327.5C270.139 326.964 270.022 326.57 269.787 326.32C269.553 326.07 269.165 325.945 268.623 325.945C268.191 325.945 267.837 326.062 267.561 326.297C267.29 326.526 267.1 326.828 266.99 327.203L266.998 333H265.1V327.438C265.074 326.443 264.566 325.945 263.576 325.945C262.816 325.945 262.277 326.255 261.959 326.875V333H260.061V324.547H261.85ZM279.482 333C279.398 332.839 279.326 332.576 279.263 332.211C278.659 332.841 277.919 333.156 277.044 333.156C276.195 333.156 275.503 332.914 274.966 332.43C274.43 331.945 274.161 331.346 274.161 330.633C274.161 329.732 274.495 329.042 275.161 328.562C275.833 328.078 276.792 327.836 278.036 327.836H279.201V327.281C279.201 326.844 279.078 326.495 278.833 326.234C278.589 325.969 278.216 325.836 277.716 325.836C277.284 325.836 276.93 325.945 276.654 326.164C276.378 326.378 276.24 326.651 276.24 326.984H274.341C274.341 326.521 274.495 326.089 274.802 325.688C275.109 325.281 275.526 324.964 276.052 324.734C276.583 324.505 277.174 324.391 277.826 324.391C278.815 324.391 279.604 324.641 280.193 325.141C280.781 325.635 281.083 326.333 281.099 327.234V331.047C281.099 331.807 281.206 332.414 281.419 332.867V333H279.482ZM277.396 331.633C277.771 331.633 278.122 331.542 278.451 331.359C278.784 331.177 279.034 330.932 279.201 330.625V329.031H278.177C277.474 329.031 276.945 329.154 276.591 329.398C276.237 329.643 276.06 329.99 276.06 330.438C276.06 330.802 276.18 331.094 276.419 331.312C276.664 331.526 276.99 331.633 277.396 331.633ZM285.551 333H283.653V324.547H285.551V333ZM283.536 322.352C283.536 322.06 283.627 321.818 283.809 321.625C283.997 321.432 284.262 321.336 284.606 321.336C284.95 321.336 285.215 321.432 285.403 321.625C285.59 321.818 285.684 322.06 285.684 322.352C285.684 322.638 285.59 322.878 285.403 323.07C285.215 323.258 284.95 323.352 284.606 323.352C284.262 323.352 283.997 323.258 283.809 323.07C283.627 322.878 283.536 322.638 283.536 322.352ZM292.808 330.703C292.808 330.365 292.668 330.107 292.386 329.93C292.11 329.753 291.649 329.596 291.003 329.461C290.358 329.326 289.819 329.154 289.386 328.945C288.438 328.487 287.964 327.823 287.964 326.953C287.964 326.224 288.272 325.615 288.886 325.125C289.501 324.635 290.282 324.391 291.23 324.391C292.24 324.391 293.056 324.641 293.675 325.141C294.3 325.641 294.613 326.289 294.613 327.086H292.714C292.714 326.721 292.579 326.419 292.308 326.18C292.037 325.935 291.678 325.812 291.23 325.812C290.813 325.812 290.472 325.909 290.207 326.102C289.946 326.294 289.816 326.552 289.816 326.875C289.816 327.167 289.938 327.393 290.183 327.555C290.428 327.716 290.923 327.88 291.668 328.047C292.412 328.208 292.996 328.404 293.418 328.633C293.845 328.857 294.16 329.128 294.363 329.445C294.571 329.763 294.675 330.148 294.675 330.602C294.675 331.362 294.36 331.979 293.73 332.453C293.1 332.922 292.274 333.156 291.253 333.156C290.561 333.156 289.944 333.031 289.402 332.781C288.86 332.531 288.438 332.188 288.136 331.75C287.834 331.312 287.683 330.841 287.683 330.336H289.527C289.553 330.784 289.722 331.13 290.035 331.375C290.347 331.615 290.761 331.734 291.277 331.734C291.777 331.734 292.157 331.641 292.418 331.453C292.678 331.26 292.808 331.01 292.808 330.703ZM305.947 330.703C305.947 330.365 305.806 330.107 305.525 329.93C305.249 329.753 304.788 329.596 304.142 329.461C303.497 329.326 302.957 329.154 302.525 328.945C301.577 328.487 301.103 327.823 301.103 326.953C301.103 326.224 301.411 325.615 302.025 325.125C302.64 324.635 303.421 324.391 304.369 324.391C305.379 324.391 306.194 324.641 306.814 325.141C307.439 325.641 307.752 326.289 307.752 327.086H305.853C305.853 326.721 305.718 326.419 305.447 326.18C305.176 325.935 304.817 325.812 304.369 325.812C303.952 325.812 303.611 325.909 303.345 326.102C303.085 326.294 302.955 326.552 302.955 326.875C302.955 327.167 303.077 327.393 303.322 327.555C303.567 327.716 304.062 327.88 304.806 328.047C305.551 328.208 306.135 328.404 306.556 328.633C306.983 328.857 307.299 329.128 307.502 329.445C307.71 329.763 307.814 330.148 307.814 330.602C307.814 331.362 307.499 331.979 306.869 332.453C306.239 332.922 305.413 333.156 304.392 333.156C303.7 333.156 303.082 333.031 302.541 332.781C301.999 332.531 301.577 332.188 301.275 331.75C300.973 331.312 300.822 330.841 300.822 330.336H302.666C302.692 330.784 302.861 331.13 303.174 331.375C303.486 331.615 303.9 331.734 304.416 331.734C304.916 331.734 305.296 331.641 305.556 331.453C305.817 331.26 305.947 331.01 305.947 330.703ZM313.641 333.156C312.438 333.156 311.462 332.779 310.712 332.023C309.967 331.263 309.595 330.253 309.595 328.992V328.758C309.595 327.914 309.756 327.161 310.079 326.5C310.407 325.833 310.865 325.315 311.454 324.945C312.043 324.576 312.699 324.391 313.423 324.391C314.574 324.391 315.462 324.758 316.087 325.492C316.717 326.227 317.032 327.266 317.032 328.609V329.375H311.509C311.566 330.073 311.798 330.625 312.204 331.031C312.615 331.438 313.131 331.641 313.751 331.641C314.621 331.641 315.329 331.289 315.876 330.586L316.899 331.562C316.561 332.068 316.108 332.461 315.54 332.742C314.977 333.018 314.345 333.156 313.641 333.156ZM313.415 325.914C312.894 325.914 312.472 326.096 312.149 326.461C311.832 326.826 311.628 327.333 311.54 327.984H315.157V327.844C315.115 327.208 314.946 326.729 314.649 326.406C314.352 326.078 313.941 325.914 313.415 325.914ZM318.625 328.711C318.625 327.398 318.932 326.352 319.547 325.57C320.167 324.784 320.987 324.391 322.008 324.391C322.971 324.391 323.729 324.727 324.281 325.398L324.367 324.547H326.078V332.742C326.078 333.852 325.732 334.727 325.039 335.367C324.352 336.008 323.422 336.328 322.25 336.328C321.63 336.328 321.023 336.198 320.43 335.938C319.841 335.682 319.393 335.346 319.086 334.93L319.984 333.789C320.568 334.482 321.286 334.828 322.141 334.828C322.771 334.828 323.268 334.656 323.633 334.312C323.997 333.974 324.18 333.474 324.18 332.812V332.242C323.633 332.852 322.904 333.156 321.992 333.156C321.003 333.156 320.193 332.763 319.562 331.977C318.937 331.19 318.625 330.102 318.625 328.711ZM320.516 328.875C320.516 329.724 320.687 330.393 321.031 330.883C321.38 331.367 321.862 331.609 322.477 331.609C323.242 331.609 323.81 331.281 324.18 330.625V326.906C323.82 326.266 323.258 325.945 322.492 325.945C321.867 325.945 321.38 326.193 321.031 326.688C320.687 327.182 320.516 327.911 320.516 328.875ZM333.601 332.172C333.043 332.828 332.252 333.156 331.226 333.156C330.309 333.156 329.614 332.888 329.14 332.352C328.671 331.815 328.437 331.039 328.437 330.023V324.547H330.335V330C330.335 331.073 330.78 331.609 331.671 331.609C332.593 331.609 333.215 331.279 333.538 330.617V324.547H335.437V333H333.648L333.601 332.172ZM342.24 326.281C341.99 326.24 341.733 326.219 341.467 326.219C340.597 326.219 340.011 326.552 339.709 327.219V333H337.811V324.547H339.623L339.67 325.492C340.128 324.758 340.764 324.391 341.576 324.391C341.847 324.391 342.071 324.427 342.248 324.5L342.24 326.281ZM343.247 328.695C343.247 327.867 343.411 327.122 343.74 326.461C344.068 325.794 344.529 325.284 345.122 324.93C345.716 324.57 346.398 324.391 347.169 324.391C348.31 324.391 349.234 324.758 349.943 325.492C350.656 326.227 351.042 327.201 351.099 328.414L351.107 328.859C351.107 329.693 350.945 330.438 350.622 331.094C350.305 331.75 349.846 332.258 349.247 332.617C348.654 332.977 347.966 333.156 347.185 333.156C345.992 333.156 345.036 332.76 344.318 331.969C343.604 331.172 343.247 330.112 343.247 328.789V328.695ZM345.146 328.859C345.146 329.729 345.326 330.411 345.685 330.906C346.044 331.396 346.544 331.641 347.185 331.641C347.826 331.641 348.323 331.391 348.677 330.891C349.036 330.391 349.216 329.659 349.216 328.695C349.216 327.841 349.031 327.164 348.661 326.664C348.297 326.164 347.799 325.914 347.169 325.914C346.549 325.914 346.057 326.161 345.693 326.656C345.328 327.146 345.146 327.88 345.146 328.859ZM361.308 333.156C360.105 333.156 359.128 332.779 358.378 332.023C357.634 331.263 357.261 330.253 357.261 328.992V328.758C357.261 327.914 357.423 327.161 357.746 326.5C358.074 325.833 358.532 325.315 359.121 324.945C359.709 324.576 360.365 324.391 361.089 324.391C362.24 324.391 363.128 324.758 363.753 325.492C364.384 326.227 364.699 327.266 364.699 328.609V329.375H359.175C359.233 330.073 359.464 330.625 359.871 331.031C360.282 331.438 360.798 331.641 361.418 331.641C362.287 331.641 362.996 331.289 363.543 330.586L364.566 331.562C364.227 332.068 363.774 332.461 363.207 332.742C362.644 333.018 362.011 333.156 361.308 333.156ZM361.082 325.914C360.561 325.914 360.139 326.096 359.816 326.461C359.498 326.826 359.295 327.333 359.207 327.984H362.824V327.844C362.782 327.208 362.613 326.729 362.316 326.406C362.019 326.078 361.608 325.914 361.082 325.914ZM370.697 328.711C370.697 327.409 370.999 326.365 371.603 325.578C372.207 324.786 373.017 324.391 374.033 324.391C374.929 324.391 375.653 324.703 376.205 325.328V321H378.103V333H376.385L376.291 332.125C375.723 332.812 374.965 333.156 374.017 333.156C373.028 333.156 372.226 332.758 371.611 331.961C371.002 331.164 370.697 330.081 370.697 328.711ZM372.595 328.875C372.595 329.734 372.76 330.406 373.088 330.891C373.421 331.37 373.892 331.609 374.502 331.609C375.278 331.609 375.845 331.263 376.205 330.57V326.961C375.856 326.284 375.293 325.945 374.517 325.945C373.903 325.945 373.429 326.19 373.095 326.68C372.762 327.164 372.595 327.896 372.595 328.875ZM384.251 333.156C383.048 333.156 382.071 332.779 381.321 332.023C380.576 331.263 380.204 330.253 380.204 328.992V328.758C380.204 327.914 380.365 327.161 380.688 326.5C381.016 325.833 381.475 325.315 382.063 324.945C382.652 324.576 383.308 324.391 384.032 324.391C385.183 324.391 386.071 324.758 386.696 325.492C387.326 326.227 387.641 327.266 387.641 328.609V329.375H382.118C382.175 330.073 382.407 330.625 382.813 331.031C383.225 331.438 383.74 331.641 384.36 331.641C385.23 331.641 385.938 331.289 386.485 330.586L387.509 331.562C387.17 332.068 386.717 332.461 386.149 332.742C385.587 333.018 384.954 333.156 384.251 333.156ZM384.024 325.914C383.503 325.914 383.082 326.096 382.759 326.461C382.441 326.826 382.238 327.333 382.149 327.984H385.766V327.844C385.725 327.208 385.556 326.729 385.259 326.406C384.962 326.078 384.55 325.914 384.024 325.914ZM112.445 359.641C112.919 359.641 113.312 359.503 113.625 359.227C113.938 358.951 114.104 358.609 114.125 358.203H115.914C115.893 358.729 115.729 359.221 115.422 359.68C115.115 360.133 114.698 360.492 114.172 360.758C113.646 361.023 113.078 361.156 112.469 361.156C111.286 361.156 110.349 360.773 109.656 360.008C108.964 359.242 108.617 358.185 108.617 356.836V356.641C108.617 355.354 108.961 354.326 109.648 353.555C110.336 352.779 111.273 352.391 112.461 352.391C113.466 352.391 114.284 352.685 114.914 353.273C115.549 353.857 115.883 354.625 115.914 355.578H114.125C114.104 355.094 113.938 354.695 113.625 354.383C113.318 354.07 112.924 353.914 112.445 353.914C111.831 353.914 111.357 354.138 111.023 354.586C110.69 355.029 110.521 355.703 110.516 356.609V356.914C110.516 357.831 110.68 358.516 111.008 358.969C111.341 359.417 111.82 359.641 112.445 359.641ZM117.437 356.695C117.437 355.867 117.601 355.122 117.929 354.461C118.257 353.794 118.718 353.284 119.312 352.93C119.905 352.57 120.588 352.391 121.359 352.391C122.499 352.391 123.424 352.758 124.132 353.492C124.845 354.227 125.231 355.201 125.288 356.414L125.296 356.859C125.296 357.693 125.135 358.438 124.812 359.094C124.494 359.75 124.036 360.258 123.437 360.617C122.843 360.977 122.155 361.156 121.374 361.156C120.181 361.156 119.226 360.76 118.507 359.969C117.793 359.172 117.437 358.112 117.437 356.789V356.695ZM119.335 356.859C119.335 357.729 119.515 358.411 119.874 358.906C120.234 359.396 120.734 359.641 121.374 359.641C122.015 359.641 122.512 359.391 122.866 358.891C123.226 358.391 123.405 357.659 123.405 356.695C123.405 355.841 123.22 355.164 122.851 354.664C122.486 354.164 121.989 353.914 121.359 353.914C120.739 353.914 120.247 354.161 119.882 354.656C119.517 355.146 119.335 355.88 119.335 356.859ZM129.108 352.547L129.162 353.523C129.787 352.768 130.608 352.391 131.623 352.391C133.384 352.391 134.28 353.398 134.311 355.414V361H132.412V355.523C132.412 354.987 132.295 354.591 132.061 354.336C131.832 354.076 131.454 353.945 130.928 353.945C130.162 353.945 129.592 354.292 129.217 354.984V361H127.319V352.547H129.108ZM137.201 361V353.953H135.911V352.547H137.201V351.969C137.206 351.307 137.346 350.74 137.622 350.266C137.898 349.792 138.289 349.435 138.794 349.195C139.299 348.956 139.906 348.836 140.615 348.836C141.031 348.836 141.43 348.88 141.81 348.969C142.195 349.057 142.594 349.169 143.005 349.305L142.716 350.875C141.997 350.625 141.341 350.5 140.747 350.5C140.169 350.5 139.75 350.628 139.49 350.883C139.229 351.133 139.099 351.51 139.099 352.016V352.547H140.763V353.953H139.099V361H137.201ZM143.904 361H142.005V352.547H143.904V361ZM151.504 361C151.421 360.839 151.348 360.576 151.286 360.211C150.681 360.841 149.942 361.156 149.067 361.156C148.218 361.156 147.525 360.914 146.989 360.43C146.452 359.945 146.184 359.346 146.184 358.633C146.184 357.732 146.517 357.042 147.184 356.562C147.856 356.078 148.814 355.836 150.059 355.836H151.223V355.281C151.223 354.844 151.101 354.495 150.856 354.234C150.611 353.969 150.239 353.836 149.739 353.836C149.306 353.836 148.952 353.945 148.676 354.164C148.4 354.378 148.262 354.651 148.262 354.984H146.364C146.364 354.521 146.517 354.089 146.825 353.688C147.132 353.281 147.549 352.964 148.075 352.734C148.606 352.505 149.197 352.391 149.848 352.391C150.838 352.391 151.627 352.641 152.215 353.141C152.804 353.635 153.106 354.333 153.122 355.234V359.047C153.122 359.807 153.228 360.414 153.442 360.867V361H151.504ZM149.418 359.633C149.793 359.633 150.145 359.542 150.473 359.359C150.806 359.177 151.056 358.932 151.223 358.625V357.031H150.2C149.497 357.031 148.968 357.154 148.614 357.398C148.26 357.643 148.082 357.99 148.082 358.438C148.082 358.802 148.202 359.094 148.442 359.312C148.687 359.526 149.012 359.633 149.418 359.633ZM157.316 352.547L157.371 353.523C157.996 352.768 158.816 352.391 159.832 352.391C161.592 352.391 162.488 353.398 162.519 355.414V361H160.621V355.523C160.621 354.987 160.503 354.591 160.269 354.336C160.04 354.076 159.662 353.945 159.136 353.945C158.371 353.945 157.8 354.292 157.425 354.984V361H155.527V352.547H157.316ZM168.378 359.641C168.852 359.641 169.245 359.503 169.557 359.227C169.87 358.951 170.036 358.609 170.057 358.203H171.846C171.826 358.729 171.661 359.221 171.354 359.68C171.047 360.133 170.63 360.492 170.104 360.758C169.578 361.023 169.01 361.156 168.401 361.156C167.219 361.156 166.281 360.773 165.589 360.008C164.896 359.242 164.549 358.185 164.549 356.836V356.641C164.549 355.354 164.893 354.326 165.581 353.555C166.268 352.779 167.206 352.391 168.393 352.391C169.398 352.391 170.216 352.685 170.846 353.273C171.482 353.857 171.815 354.625 171.846 355.578H170.057C170.036 355.094 169.87 354.695 169.557 354.383C169.25 354.07 168.857 353.914 168.378 353.914C167.763 353.914 167.289 354.138 166.956 354.586C166.622 355.029 166.453 355.703 166.448 356.609V356.914C166.448 357.831 166.612 358.516 166.94 358.969C167.273 359.417 167.753 359.641 168.378 359.641ZM168.893 361.016L168.807 361.438C169.589 361.578 169.979 362.029 169.979 362.789C169.979 363.336 169.755 363.763 169.307 364.07C168.859 364.378 168.232 364.531 167.424 364.531L167.37 363.461C167.714 363.461 167.977 363.398 168.159 363.273C168.346 363.154 168.44 362.984 168.44 362.766C168.44 362.531 168.346 362.367 168.159 362.273C167.977 362.185 167.677 362.128 167.26 362.102L167.51 361.016H168.893ZM178.775 361C178.692 360.839 178.619 360.576 178.556 360.211C177.952 360.841 177.213 361.156 176.338 361.156C175.489 361.156 174.796 360.914 174.26 360.43C173.723 359.945 173.455 359.346 173.455 358.633C173.455 357.732 173.788 357.042 174.455 356.562C175.127 356.078 176.085 355.836 177.33 355.836H178.494V355.281C178.494 354.844 178.372 354.495 178.127 354.234C177.882 353.969 177.51 353.836 177.01 353.836C176.577 353.836 176.223 353.945 175.947 354.164C175.671 354.378 175.533 354.651 175.533 354.984H173.635C173.635 354.521 173.788 354.089 174.095 353.688C174.403 353.281 174.819 352.964 175.345 352.734C175.877 352.505 176.468 352.391 177.119 352.391C178.109 352.391 178.898 352.641 179.486 353.141C180.075 353.635 180.377 354.333 180.392 355.234V359.047C180.392 359.807 180.499 360.414 180.713 360.867V361H178.775ZM176.689 359.633C177.064 359.633 177.416 359.542 177.744 359.359C178.077 359.177 178.327 358.932 178.494 358.625V357.031H177.47C176.767 357.031 176.239 357.154 175.885 357.398C175.53 357.643 175.353 357.99 175.353 358.438C175.353 358.802 175.473 359.094 175.713 359.312C175.957 359.526 176.283 359.633 176.689 359.633ZM184.009 359C184.363 359 184.636 359.102 184.829 359.305C185.022 359.503 185.118 359.753 185.118 360.055C185.118 360.352 185.022 360.599 184.829 360.797C184.636 360.99 184.363 361.086 184.009 361.086C183.67 361.086 183.402 360.99 183.204 360.797C183.006 360.604 182.907 360.357 182.907 360.055C182.907 359.753 183.003 359.503 183.196 359.305C183.389 359.102 183.66 359 184.009 359Z" fill="#37474F" fill-opacity="0.721569"/>
<path d="M119.156 235.484H112.992L111.82 239H108.082L114.434 221.938H117.691L124.078 239H120.34L119.156 235.484ZM113.941 232.637H118.207L116.062 226.25L113.941 232.637ZM136.301 232.777C136.301 234.73 135.855 236.297 134.965 237.477C134.082 238.648 132.887 239.234 131.379 239.234C130.098 239.234 129.062 238.789 128.273 237.898V243.875H124.887V226.32H128.027L128.145 227.562C128.965 226.578 130.035 226.086 131.355 226.086C132.918 226.086 134.133 226.664 135 227.82C135.867 228.977 136.301 230.57 136.301 232.602V232.777ZM132.914 232.531C132.914 231.352 132.703 230.441 132.281 229.801C131.867 229.16 131.262 228.84 130.465 228.84C129.402 228.84 128.672 229.246 128.273 230.059V235.25C128.688 236.086 129.426 236.504 130.488 236.504C132.105 236.504 132.914 235.18 132.914 232.531ZM137.883 232.543C137.883 231.285 138.125 230.164 138.609 229.18C139.094 228.195 139.789 227.434 140.695 226.895C141.609 226.355 142.668 226.086 143.871 226.086C145.582 226.086 146.977 226.609 148.055 227.656C149.141 228.703 149.746 230.125 149.871 231.922L149.895 232.789C149.895 234.734 149.352 236.297 148.266 237.477C147.18 238.648 145.723 239.234 143.895 239.234C142.066 239.234 140.605 238.648 139.512 237.477C138.426 236.305 137.883 234.711 137.883 232.695V232.543ZM141.27 232.789C141.27 233.992 141.496 234.914 141.949 235.555C142.402 236.188 143.051 236.504 143.895 236.504C144.715 236.504 145.355 236.191 145.816 235.566C146.277 234.934 146.508 233.926 146.508 232.543C146.508 231.363 146.277 230.449 145.816 229.801C145.355 229.152 144.707 228.828 143.871 228.828C143.043 228.828 142.402 229.152 141.949 229.801C141.496 230.441 141.27 231.438 141.27 232.789ZM155.555 239H152.156V226.32H155.555V239ZM151.957 223.039C151.957 222.531 152.125 222.113 152.461 221.785C152.805 221.457 153.27 221.293 153.855 221.293C154.434 221.293 154.895 221.457 155.238 221.785C155.582 222.113 155.754 222.531 155.754 223.039C155.754 223.555 155.578 223.977 155.227 224.305C154.883 224.633 154.426 224.797 153.855 224.797C153.285 224.797 152.824 224.633 152.473 224.305C152.129 223.977 151.957 223.555 151.957 223.039ZM157.828 232.543C157.828 231.285 158.07 230.164 158.555 229.18C159.039 228.195 159.734 227.434 160.641 226.895C161.555 226.355 162.613 226.086 163.816 226.086C165.527 226.086 166.922 226.609 168 227.656C169.086 228.703 169.691 230.125 169.816 231.922L169.84 232.789C169.84 234.734 169.297 236.297 168.211 237.477C167.125 238.648 165.668 239.234 163.84 239.234C162.012 239.234 160.551 238.648 159.457 237.477C158.371 236.305 157.828 234.711 157.828 232.695V232.543ZM161.215 232.789C161.215 233.992 161.441 234.914 161.895 235.555C162.348 236.188 162.996 236.504 163.84 236.504C164.66 236.504 165.301 236.191 165.762 235.566C166.223 234.934 166.453 233.926 166.453 232.543C166.453 231.363 166.223 230.449 165.762 229.801C165.301 229.152 164.652 228.828 163.816 228.828C162.988 228.828 162.348 229.152 161.895 229.801C161.441 230.441 161.215 231.438 161.215 232.789ZM189.316 232.777C189.316 234.73 188.871 236.297 187.98 237.477C187.098 238.648 185.902 239.234 184.395 239.234C183.113 239.234 182.078 238.789 181.289 237.898V243.875H177.902V226.32H181.043L181.16 227.562C181.98 226.578 183.051 226.086 184.371 226.086C185.934 226.086 187.148 226.664 188.016 227.82C188.883 228.977 189.316 230.57 189.316 232.602V232.777ZM185.93 232.531C185.93 231.352 185.719 230.441 185.297 229.801C184.883 229.16 184.277 228.84 183.48 228.84C182.418 228.84 181.688 229.246 181.289 230.059V235.25C181.703 236.086 182.441 236.504 183.504 236.504C185.121 236.504 185.93 235.18 185.93 232.531ZM190.898 232.543C190.898 231.285 191.141 230.164 191.625 229.18C192.109 228.195 192.805 227.434 193.711 226.895C194.625 226.355 195.684 226.086 196.887 226.086C198.598 226.086 199.992 226.609 201.07 227.656C202.156 228.703 202.762 230.125 202.887 231.922L202.91 232.789C202.91 234.734 202.367 236.297 201.281 237.477C200.195 238.648 198.738 239.234 196.91 239.234C195.082 239.234 193.621 238.648 192.527 237.477C191.441 236.305 190.898 234.711 190.898 232.695V232.543ZM194.285 232.789C194.285 233.992 194.512 234.914 194.965 235.555C195.418 236.188 196.066 236.504 196.91 236.504C197.73 236.504 198.371 236.191 198.832 235.566C199.293 234.934 199.523 233.926 199.523 232.543C199.523 231.363 199.293 230.449 198.832 229.801C198.371 229.152 197.723 228.828 196.887 228.828C196.059 228.828 195.418 229.152 194.965 229.801C194.512 230.441 194.285 231.438 194.285 232.789ZM197.555 221H201.246L198 224.633H195.246L197.555 221ZM211.863 235.496C211.863 235.082 211.656 234.758 211.242 234.523C210.836 234.281 210.18 234.066 209.273 233.879C206.258 233.246 204.75 231.965 204.75 230.035C204.75 228.91 205.215 227.973 206.145 227.223C207.082 226.465 208.305 226.086 209.812 226.086C211.422 226.086 212.707 226.465 213.668 227.223C214.637 227.98 215.121 228.965 215.121 230.176H211.734C211.734 229.691 211.578 229.293 211.266 228.98C210.953 228.66 210.465 228.5 209.801 228.5C209.23 228.5 208.789 228.629 208.477 228.887C208.164 229.145 208.008 229.473 208.008 229.871C208.008 230.246 208.184 230.551 208.535 230.785C208.895 231.012 209.496 231.211 210.34 231.383C211.184 231.547 211.895 231.734 212.473 231.945C214.262 232.602 215.156 233.738 215.156 235.355C215.156 236.512 214.66 237.449 213.668 238.168C212.676 238.879 211.395 239.234 209.824 239.234C208.762 239.234 207.816 239.047 206.988 238.672C206.168 238.289 205.523 237.77 205.055 237.113C204.586 236.449 204.352 235.734 204.352 234.969H207.562C207.594 235.57 207.816 236.031 208.23 236.352C208.645 236.672 209.199 236.832 209.895 236.832C210.543 236.832 211.031 236.711 211.359 236.469C211.695 236.219 211.863 235.895 211.863 235.496ZM223.934 233.059H217.336V230.328H223.934V233.059ZM226.125 232.566C226.125 230.59 226.566 229.016 227.449 227.844C228.34 226.672 229.555 226.086 231.094 226.086C232.328 226.086 233.348 226.547 234.152 227.469V221H237.551V239H234.492L234.328 237.652C233.484 238.707 232.398 239.234 231.07 239.234C229.578 239.234 228.379 238.648 227.473 237.477C226.574 236.297 226.125 234.66 226.125 232.566ZM229.512 232.812C229.512 234 229.719 234.91 230.133 235.543C230.547 236.176 231.148 236.492 231.938 236.492C232.984 236.492 233.723 236.051 234.152 235.168V230.164C233.73 229.281 233 228.84 231.961 228.84C230.328 228.84 229.512 230.164 229.512 232.812ZM246.012 239.234C244.152 239.234 242.637 238.664 241.465 237.523C240.301 236.383 239.719 234.863 239.719 232.965V232.637C239.719 231.363 239.965 230.227 240.457 229.227C240.949 228.219 241.645 227.445 242.543 226.906C243.449 226.359 244.48 226.086 245.637 226.086C247.371 226.086 248.734 226.633 249.727 227.727C250.727 228.82 251.227 230.371 251.227 232.379V233.762H243.152C243.262 234.59 243.59 235.254 244.137 235.754C244.691 236.254 245.391 236.504 246.234 236.504C247.539 236.504 248.559 236.031 249.293 235.086L250.957 236.949C250.449 237.668 249.762 238.23 248.895 238.637C248.027 239.035 247.066 239.234 246.012 239.234ZM245.625 228.828C244.953 228.828 244.406 229.055 243.984 229.508C243.57 229.961 243.305 230.609 243.188 231.453H247.898V231.184C247.883 230.434 247.68 229.855 247.289 229.449C246.898 229.035 246.344 228.828 245.625 228.828ZM260.027 235.496C260.027 235.082 259.82 234.758 259.406 234.523C259 234.281 258.344 234.066 257.438 233.879C254.422 233.246 252.914 231.965 252.914 230.035C252.914 228.91 253.379 227.973 254.309 227.223C255.246 226.465 256.469 226.086 257.977 226.086C259.586 226.086 260.871 226.465 261.832 227.223C262.801 227.98 263.285 228.965 263.285 230.176H259.898C259.898 229.691 259.742 229.293 259.43 228.98C259.117 228.66 258.629 228.5 257.965 228.5C257.395 228.5 256.953 228.629 256.641 228.887C256.328 229.145 256.172 229.473 256.172 229.871C256.172 230.246 256.348 230.551 256.699 230.785C257.059 231.012 257.66 231.211 258.504 231.383C259.348 231.547 260.059 231.734 260.637 231.945C262.426 232.602 263.32 233.738 263.32 235.355C263.32 236.512 262.824 237.449 261.832 238.168C260.84 238.879 259.559 239.234 257.988 239.234C256.926 239.234 255.98 239.047 255.152 238.672C254.332 238.289 253.688 237.77 253.219 237.113C252.75 236.449 252.516 235.734 252.516 234.969H255.727C255.758 235.57 255.98 236.031 256.395 236.352C256.809 236.672 257.363 236.832 258.059 236.832C258.707 236.832 259.195 236.711 259.523 236.469C259.859 236.219 260.027 235.895 260.027 235.496ZM272.859 239C272.703 238.695 272.59 238.316 272.52 237.863C271.699 238.777 270.633 239.234 269.32 239.234C268.078 239.234 267.047 238.875 266.227 238.156C265.414 237.438 265.008 236.531 265.008 235.438C265.008 234.094 265.504 233.062 266.496 232.344C267.496 231.625 268.938 231.262 270.82 231.254H272.379V230.527C272.379 229.941 272.227 229.473 271.922 229.121C271.625 228.77 271.152 228.594 270.504 228.594C269.934 228.594 269.484 228.73 269.156 229.004C268.836 229.277 268.676 229.652 268.676 230.129H265.289C265.289 229.395 265.516 228.715 265.969 228.09C266.422 227.465 267.062 226.977 267.891 226.625C268.719 226.266 269.648 226.086 270.68 226.086C272.242 226.086 273.48 226.48 274.395 227.27C275.316 228.051 275.777 229.152 275.777 230.574V236.07C275.785 237.273 275.953 238.184 276.281 238.801V239H272.859ZM270.059 236.645C270.559 236.645 271.02 236.535 271.441 236.316C271.863 236.09 272.176 235.789 272.379 235.414V233.234H271.113C269.418 233.234 268.516 233.82 268.406 234.992L268.395 235.191C268.395 235.613 268.543 235.961 268.84 236.234C269.137 236.508 269.543 236.645 270.059 236.645ZM279.199 239V228.805H277.312V226.32H279.199V225.734C279.215 224.141 279.703 222.914 280.664 222.055C281.633 221.188 282.996 220.754 284.754 220.754C285.809 220.754 287.09 220.984 288.598 221.445L288.105 224.246C287.34 224.02 286.746 223.875 286.324 223.812C285.902 223.742 285.449 223.707 284.965 223.707C283.387 223.707 282.598 224.406 282.598 225.805V226.32H285.094V228.805H282.598V239H279.199ZM290.18 239H286.781V226.32H290.18V239ZM292.453 232.543C292.453 231.285 292.695 230.164 293.18 229.18C293.664 228.195 294.359 227.434 295.266 226.895C296.18 226.355 297.238 226.086 298.441 226.086C300.152 226.086 301.547 226.609 302.625 227.656C303.711 228.703 304.316 230.125 304.441 231.922L304.465 232.789C304.465 234.734 303.922 236.297 302.836 237.477C301.75 238.648 300.293 239.234 298.465 239.234C296.637 239.234 295.176 238.648 294.082 237.477C292.996 236.305 292.453 234.711 292.453 232.695V232.543ZM295.84 232.789C295.84 233.992 296.066 234.914 296.52 235.555C296.973 236.188 297.621 236.504 298.465 236.504C299.285 236.504 299.926 236.191 300.387 235.566C300.848 234.934 301.078 233.926 301.078 232.543C301.078 231.363 300.848 230.449 300.387 229.801C299.926 229.152 299.277 228.828 298.441 228.828C297.613 228.828 296.973 229.152 296.52 229.801C296.066 230.441 295.84 231.438 295.84 232.789Z" fill="#37474F"/>
<rect x="108" y="106" width="76" height="76" rx="38" fill="#FF5959"/>
<defs>
<filter id="filter0_d_0_81" x="0" y="0" width="498" height="505" filterUnits="userSpaceOnUse" color-interpolation-filters="sRGB">
<feFlood flood-opacity="0" result="BackgroundImageFix"/>
<feColorMatrix in="SourceAlpha" type="matrix" values="0 0 0 0 0 0 0 0 0 0 0 0 0 0 0 0 0 0 127 0" result="hardAlpha"/>
<feOffset/>
<feGaussianBlur stdDeviation="38.5"/>
<feColorMatrix type="matrix" values="0 0 0 0 0 0 0 0 0 0 0 0 0 0 0 0 0 0 0.06 0"/>
<feBlend mode="normal" in2="BackgroundImageFix" result="effect1_dropShadow_0_81"/>
<feBlend mode="normal" in="SourceGraphic" in2="effect1_dropShadow_0_81" result="shape"/>
</filter>
</defs>
</svg>
