<svg width="64" height="64" viewBox="0 0 64 64" fill="none" xmlns="http://www.w3.org/2000/svg">
<path d="M18.9091 32C18.9091 30.3934 17.6066 29.0909 16 29.0909H4.36368C2.75709 29.0909 1.45459 30.3934 1.45459 32C1.45459 33.6066 2.75709 34.9091 4.36368 34.9091H16C17.6066 34.9091 18.9091 33.6066 18.9091 32Z" fill="black"/>
<path d="M59.6365 29.0909H53.8183C52.2117 29.0909 50.9092 30.3934 50.9092 32C50.9092 33.6066 52.2117 34.9091 53.8183 34.9091H59.6365C61.243 34.9091 62.5455 33.6066 62.5455 32C62.5455 30.3934 61.243 29.0909 59.6365 29.0909Z" fill="black"/>
<path d="M33.4545 17.4545C35.0611 17.4545 36.3636 16.1521 36.3636 14.5455V2.90909C36.3636 1.3025 35.0611 0 33.4545 0C31.8479 0 30.5454 1.3025 30.5454 2.90909V14.5455C30.5454 16.1521 31.8479 17.4545 33.4545 17.4545Z" fill="black"/>
<path d="M33.455 46.5455C31.8484 46.5455 30.5459 47.848 30.5459 49.4545V61.0909C30.5459 62.6975 31.8484 64 33.455 64C35.0616 64 36.3641 62.6975 36.3641 61.0909V49.4545C36.3641 47.848 35.0616 46.5455 33.455 46.5455Z" fill="black"/>
<path d="M14.9412 9.37251C13.8055 8.23641 11.9635 8.2366 10.8272 9.37251C9.69107 10.5086 9.69107 12.3504 10.8272 13.4865L19.0554 21.715C19.6235 22.2831 20.368 22.5672 21.1124 22.5672C21.8567 22.5672 22.6014 22.2831 23.1693 21.7152C24.3054 20.5791 24.3054 18.7373 23.1693 17.6012L14.9412 9.37251Z" fill="black"/>
<path d="M47.8537 42.2854C46.7178 41.1495 44.8758 41.1495 43.7397 42.2854C42.6036 43.4215 42.6038 45.2633 43.7397 46.3994L51.9682 54.6275C52.5362 55.1955 53.2807 55.4795 54.0253 55.4795C54.7698 55.4795 55.5143 55.1953 56.0822 54.6275C57.2183 53.4914 57.2183 51.6495 56.0822 50.5134L47.8537 42.2854Z" fill="black"/>
<path d="M19.0552 42.2854L10.8272 50.5134C9.69107 51.6495 9.69107 53.4914 10.8272 54.6275C11.3952 55.1955 12.1398 55.4795 12.8843 55.4795C13.6288 55.4795 14.3733 55.1955 14.9412 54.6275L23.1693 46.3994C24.3054 45.2633 24.3054 43.4215 23.1693 42.2854C22.0332 41.1493 20.1911 41.1493 19.0552 42.2854Z" fill="black"/>
</svg>
